<svg id="Layer_1" data-name="Layer 1" xmlns="http://www.w3.org/2000/svg" viewBox="0 0 272.16 37.44"><title>Artboard 1</title><path d="M65.25,12.37c-.8-2.86-2-5.94-5.85-5.94a4.69,4.69,0,0,0-5,4.92c0,3.26,2.15,4.78,5.68,6.62s7.73,3.89,7.73,8.89c0,4.69-4,8.45-9.92,8.45a15.56,15.56,0,0,1-4.38-.67,15.32,15.32,0,0,1-2.19-.94,55.07,55.07,0,0,1-1.21-6.93l1.3-.31c.72,2.73,2.73,7.24,7.33,7.24a5,5,0,0,0,5.36-5.36c0-3.31-2.46-4.87-5.81-6.66-2.86-1.52-7.37-3.75-7.37-8.8,0-4.29,3.44-8,9.21-8a18.54,18.54,0,0,1,5.63,1c.18,1.61.4,3.35.76,6.17Z" fill="#fff"/><path d="M95.24,34.63V33.46c2.64-.27,3.13-.45,3.13-3.62V22.38c0-3.17-1.12-5.18-3.93-5.18a8.23,8.23,0,0,0-5,2.32,10.46,10.46,0,0,1,.13,1.88v8.72c0,2.82.4,3.08,2.86,3.35v1.16H82.86V33.46C85.63,33.2,86,33,86,30V22.33c0-3.31-1.16-5.14-3.89-5.14-1.79,0-3.53,1.21-4.87,2.32V30c0,2.91.36,3.17,2.55,3.44v1.16H70.39V33.46c2.95-.27,3.35-.54,3.35-3.44V20.77c0-2.86-.13-3.08-2.73-3.49v-1a27.27,27.27,0,0,0,6.21-1.83V18c.94-.63,1.92-1.43,3.26-2.28a6.65,6.65,0,0,1,3.66-1.21,5.34,5.34,0,0,1,5,3.67,41.75,41.75,0,0,1,3.71-2.5,6.18,6.18,0,0,1,3.35-1.16c3.49,0,5.68,2.46,5.68,6.84V30c0,3,.36,3.17,2.91,3.44v1.16Z" fill="#fff"/><path d="M107.22,34.63V33.46c2.82-.27,3.13-.54,3.13-3.58V20.68c0-2.77-.13-2.95-2.82-3.4V16.21a28.18,28.18,0,0,0,6.35-1.74V29.89c0,3,.31,3.31,3.17,3.58v1.16Zm2.37-26.24a2.3,2.3,0,0,1,2.28-2.32,2.23,2.23,0,0,1,2.23,2.32,2.29,2.29,0,0,1-2.28,2.28A2.34,2.34,0,0,1,109.58,8.39Z" fill="#fff"/><path d="M127.51,34.58a4.54,4.54,0,0,1-1.88.58c-2.82,0-4.38-1.79-4.38-5.32v-13h-3.08l-.18-.45,1.21-1.3h2.06V11.83l2.91-2.95.63.09v6.12h5.05a1.27,1.27,0,0,1-.27,1.74h-4.78V28.32c0,3.62,1.47,4.29,2.59,4.29a6.39,6.39,0,0,0,2.77-.76l.4,1.16Z" fill="#fff"/><path d="M144.62,34.63V33.46c2.59-.27,2.95-.54,2.95-3.44V22.6c0-3.66-1.39-5.5-4.38-5.5a6.3,6.3,0,0,0-4.65,2.28V30c0,2.86.22,3.17,2.86,3.44v1.16h-9.48V33.46C134.61,33.24,135,33,135,30V8.7c0-2.82-.09-3-3-3.31v-1a49,49,0,0,0,6.57-1.56v15c1.56-1.61,4-3.26,6.39-3.26,3.62,0,6.17,2.28,6.17,7.64V30c0,2.95.31,3.22,2.95,3.44v1.16Z" fill="#fff"/><path d="M167.78,20.37c-.85-2.64-2.41-4.42-4.6-4.42A2.92,2.92,0,0,0,160.27,19c0,2,1.79,3,3.8,3.89,3.35,1.39,5.63,3,5.63,6.08,0,4.07-3.8,6.17-7.37,6.17a9,9,0,0,1-5.14-1.52,21.07,21.07,0,0,1-.71-5.27l1.16-.22c.8,2.95,2.82,5.54,5.5,5.54a3.12,3.12,0,0,0,3.17-3.13c0-2-1.3-3-3.53-4.07-2.68-1.25-5.59-2.73-5.59-6.17,0-3.13,2.68-5.77,6.79-5.77a10.4,10.4,0,0,1,4,.76,33.58,33.58,0,0,1,1,4.78Z" fill="#fff"/><path d="M192.53,24.52c0,7.2-5.27,10.64-9.7,10.64A9.68,9.68,0,0,1,173,25.28c0-7.37,5.72-10.73,9.79-10.73A9.7,9.7,0,0,1,192.53,24.52Zm-15.33-.67c0,5.63,2.46,9.83,6.12,9.83,2.77,0,5.05-2.06,5.05-8.18,0-5.23-2.1-9.47-6-9.47C179.62,16,177.2,18.8,177.2,23.85Z" fill="#fff"/><path d="M207.73,34.63V33.46c2.64-.27,2.95-.63,2.95-3.71V22.29c0-3.08-1.07-5.09-4.07-5.09a8,8,0,0,0-4.87,2.28V30c0,3,.27,3.22,2.91,3.49v1.16h-9.7V33.46c3-.31,3.26-.54,3.26-3.49V20.73c0-2.86-.27-3-2.68-3.44v-1a26.88,26.88,0,0,0,6.21-1.83V18c.89-.67,1.88-1.34,3-2.1a6.85,6.85,0,0,1,3.71-1.34c3.53,0,5.77,2.46,5.77,6.79V30c0,3,.22,3.22,2.82,3.49v1.16Z" fill="#fff"/><path d="M219.53,34.63V33.46c2.82-.27,3.13-.54,3.13-3.58V20.68c0-2.77-.13-2.95-2.82-3.4V16.21a28.18,28.18,0,0,0,6.35-1.74V29.89c0,3,.31,3.31,3.17,3.58v1.16ZM221.9,8.39a2.3,2.3,0,0,1,2.28-2.32,2.23,2.23,0,0,1,2.23,2.32,2.29,2.29,0,0,1-2.28,2.28A2.34,2.34,0,0,1,221.9,8.39Z" fill="#fff"/><path d="M245.76,35.16a3.64,3.64,0,0,1-2.1-.85,4.65,4.65,0,0,1-1.07-2c-1.79,1.21-3.93,2.86-5.27,2.86A5.39,5.39,0,0,1,232,29.71c0-2.19,1.16-3.58,3.62-4.42,2.68-.89,5.94-2.1,6.93-2.91v-.8c0-3.22-1.52-5.05-3.75-5.05a2.52,2.52,0,0,0-2,.89,6.49,6.49,0,0,0-1.34,2.95,1.24,1.24,0,0,1-1.3,1,2.18,2.18,0,0,1-2-1.92c0-.67.58-1.16,1.43-1.79a20,20,0,0,1,6.7-3.13,5.83,5.83,0,0,1,3.66,1.21c1.56,1.3,2,3.13,2,5.45v8.31c0,2,.8,2.68,1.56,2.68a3.4,3.4,0,0,0,1.61-.49l.45,1.16ZM242.5,23.9c-.94.49-3.08,1.43-4,1.88-1.74.8-2.73,1.65-2.73,3.26a3.27,3.27,0,0,0,3.17,3.44,6.39,6.39,0,0,0,3.58-1.61Z" fill="#fff"/><path d="M263.51,34.63V33.46c2.64-.27,2.95-.63,2.95-3.71V22.29c0-3.08-1.07-5.09-4.07-5.09a8,8,0,0,0-4.87,2.28V30c0,3,.27,3.22,2.91,3.49v1.16h-9.7V33.46c3-.31,3.26-.54,3.26-3.49V20.73c0-2.86-.27-3-2.68-3.44v-1a26.88,26.88,0,0,0,6.21-1.83V18c.89-.67,1.88-1.34,3-2.1a6.85,6.85,0,0,1,3.71-1.34c3.53,0,5.77,2.46,5.77,6.79V30c0,3,.22,3.22,2.82,3.49v1.16Z" fill="#fff"/><path d="M32.5,23.12a4.55,4.55,0,0,0-3.91-2.44h0l9.38-2-9.38-2h0A7.59,7.59,0,0,1,33.25,15c2.06,0,3.85-2.56,2.71-4.5,0,0-.34,3.05-4.19,2a4.56,4.56,0,0,0-4.49,1h0l5.25-8-8,5.25h0A7.58,7.58,0,0,1,26.57,6.3c1.44-1.48.91-4.53-1.26-5.1,0,0,1.92,2.4-1.52,4.4a4.56,4.56,0,0,0-2.44,3.91h0l-2-9.38-2,9.38h0a7.58,7.58,0,0,1-1.74-4.66c0-2.06-2.56-3.85-4.5-2.71,0,0,3,.34,2,4.19a4.56,4.56,0,0,0,1,4.49h0l-8-5.25h0l4.28,6.53,1,1.48h0A7.59,7.59,0,0,1,7,11.53c-1.48-1.44-4.53-.91-5.1,1.26,0,0,2.4-1.92,4.4,1.52a4.56,4.56,0,0,0,3.91,2.44h0l-9.38,2,9.38,2h0a7.58,7.58,0,0,1-4.66,1.74c-2.06,0-3.85,2.56-2.71,4.5,0,0,.34-3,4.19-2a4.55,4.55,0,0,0,4.49-1h0l-5.25,8,8-5.25a7.58,7.58,0,0,1-2.06,4.52c-1.44,1.48-.91,4.53,1.26,5.1,0,0-1.92-2.4,1.53-4.4a4.56,4.56,0,0,0,2.44-3.91h0l2,9.38,2-9.38h0a7.59,7.59,0,0,1,1.74,4.66c0,2.06,2.56,3.85,4.5,2.71,0,0-3-.34-2-4.19a4.56,4.56,0,0,0-1-4.49h0l8,5.25-2.77-4.23-2.48-3.78h0a7.59,7.59,0,0,1,4.52,2.06c1.48,1.44,4.53.91,5.1-1.26C36.9,24.65,34.5,26.57,32.5,23.12Z" fill="#fff"/></svg>