<svg id="Layer_1" data-name="Layer 1" xmlns="http://www.w3.org/2000/svg" viewBox="0 0 38 38"><title>Artboard 1</title><path d="M32.11,23.4A4.56,4.56,0,0,0,28.21,21h0l9.38-2-9.38-1.95h0a7.7,7.7,0,0,1,4.65-1.74c2.07,0,3.85-2.55,2.72-4.49,0,0-.34,3-4.19,2a4.55,4.55,0,0,0-4.49,1h0l5.26-8-8,5.25h0a7.54,7.54,0,0,1,2.06-4.53c1.44-1.48.91-4.53-1.26-5.09,0,0,1.91,2.39-1.53,4.4A4.54,4.54,0,0,0,21,9.79h0L19,.41,17.05,9.79h0A7.53,7.53,0,0,1,15.3,5.14c0-2.07-2.56-3.86-4.5-2.71,0,0,3,.33,2,4.18a4.55,4.55,0,0,0,1,4.5h0l-8-5.26h0l4.28,6.54,1,1.48h0a7.54,7.54,0,0,1-4.53-2.06c-1.48-1.44-4.53-.91-5.1,1.26,0,0,2.4-1.91,4.4,1.53A4.55,4.55,0,0,0,9.79,17h0L.41,19l9.38,2h0A7.6,7.6,0,0,1,5.13,22.7c-2.06,0-3.85,2.55-2.71,4.5,0,0,.34-3.05,4.19-2a4.53,4.53,0,0,0,4.49-1h0l-5.25,8,8-5.26a7.56,7.56,0,0,1-2.06,4.53c-1.44,1.48-.92,4.53,1.26,5.1,0,0-1.92-2.4,1.53-4.4A4.6,4.6,0,0,0,17,28.21h0L19,37.59,21,28.21h0a7.67,7.67,0,0,1,1.74,4.66c0,2.06,2.55,3.85,4.49,2.71,0,0-3.05-.34-2-4.19a4.54,4.54,0,0,0-1-4.49h0l8,5.25-2.77-4.23-2.48-3.78h0a7.59,7.59,0,0,1,4.53,2.06c1.48,1.44,4.53.92,5.09-1.26C36.51,24.93,34.12,26.85,32.11,23.4Z" style="fill:#fff"/></svg>