<?xml version="1.0" standalone="no"?>
<!DOCTYPE svg PUBLIC "-//W3C//DTD SVG 20010904//EN"
 "http://www.w3.org/TR/2001/REC-SVG-20010904/DTD/svg10.dtd">
<svg version="1.0" xmlns="http://www.w3.org/2000/svg"
 width="361.000000pt" height="361.000000pt" viewBox="0 0 361.000000 361.000000"
 preserveAspectRatio="xMidYMid meet">
<metadata>
Created by potrace 1.11, written by Peter Selinger 2001-2013
</metadata>
<g transform="translate(0.000000,361.000000) scale(0.100000,-0.100000)"
fill="#000000" stroke="none">
<path d="M1527 3585 c-271 -44 -537 -153 -769 -315 -119 -82 -332 -296 -420
-420 -84 -119 -197 -342 -242 -480 -118 -359 -118 -771 0 -1130 45 -137 157
-361 241 -480 86 -121 300 -335 423 -422 188 -133 452 -248 690 -300 94 -20
132 -22 355 -22 223 0 261 2 355 22 238 52 501 166 690 299 121 86 335 300
422 423 84 119 197 342 242 480 118 359 118 771 0 1130 -45 137 -157 361 -241
480 -86 121 -300 335 -423 422 -187 132 -453 248 -685 298 -131 29 -501 37
-638 15z m373 -462 c46 -221 87 -400 90 -398 4 3 10 22 14 42 17 106 99 211
232 299 132 87 183 161 184 265 0 39 -7 70 -23 102 l-24 46 36 -15 c119 -49
188 -216 147 -356 -11 -40 -35 -80 -88 -144 -76 -95 -128 -193 -153 -289 -15
-60 -19 -105 -9 -105 3 0 123 77 267 172 144 94 313 204 374 245 l113 73 -44
-68 c-24 -37 -105 -161 -181 -277 -76 -115 -167 -254 -201 -307 l-63 -97 47
30 c104 66 236 85 369 53 37 -9 102 -17 143 -17 62 0 85 5 128 27 56 28 103
83 123 144 l12 37 13 -30 c36 -84 3 -223 -70 -299 -64 -65 -112 -86 -225 -97
-107 -10 -210 -38 -286 -76 -61 -31 -138 -83 -132 -89 4 -4 847 -183 872 -185
22 -2 -55 -19 -442 -99 -222 -46 -403 -87 -403 -91 0 -3 18 -9 39 -12 108 -14
217 -97 307 -233 60 -91 107 -137 168 -165 54 -24 139 -24 194 1 45 20 50 15
28 -28 -22 -42 -76 -89 -130 -113 -111 -48 -234 -32 -326 44 -96 78 -173 127
-250 156 -74 29 -180 50 -180 37 0 -4 77 -124 172 -269 94 -144 204 -312 244
-374 l73 -112 -97 63 c-53 34 -191 125 -307 201 -115 76 -240 157 -277 181
l-67 43 30 -47 c65 -103 85 -242 53 -366 -9 -33 -17 -97 -17 -141 0 -68 4 -88
26 -133 29 -56 84 -103 145 -123 l37 -12 -30 -13 c-84 -36 -223 -3 -299 70
-65 64 -86 112 -97 225 -10 107 -38 210 -76 286 -31 61 -83 138 -89 132 -4 -4
-183 -847 -185 -872 -2 -22 -19 55 -99 443 -46 221 -87 402 -91 402 -3 0 -9
-18 -12 -39 -14 -108 -97 -217 -233 -307 -91 -60 -137 -107 -165 -168 -25 -54
-24 -139 1 -195 11 -24 20 -45 20 -47 0 -3 -17 4 -37 15 -161 82 -201 314 -80
461 78 96 127 173 156 250 29 75 50 180 37 180 -4 0 -125 -77 -269 -172 -144
-94 -312 -204 -374 -244 l-112 -73 63 97 c34 53 125 191 201 307 76 116 157
240 181 277 l43 67 -47 -30 c-104 -66 -236 -85 -369 -53 -37 9 -102 17 -143
17 -62 0 -85 -5 -128 -27 -56 -28 -103 -83 -123 -144 l-12 -37 -13 30 c-36 84
-3 223 70 299 64 65 112 86 225 97 107 10 210 38 286 76 61 31 138 83 132 89
-4 4 -847 183 -872 185 -22 2 55 19 442 99 221 46 400 87 398 90 -3 4 -22 10
-42 14 -106 17 -211 99 -299 232 -60 91 -107 137 -168 165 -54 25 -139 24
-195 -1 -24 -11 -45 -20 -47 -20 -3 0 4 17 15 38 60 116 217 178 353 138 40
-11 80 -35 144 -88 95 -76 193 -128 289 -153 60 -15 105 -19 105 -9 0 3 -77
123 -172 267 -94 144 -204 313 -245 374 l-73 113 68 -44 c37 -24 161 -105 277
-181 116 -76 254 -167 307 -201 l97 -63 -30 47 c-66 104 -85 236 -53 369 9 37
17 102 17 143 0 62 -5 85 -27 128 -28 56 -83 103 -144 123 l-37 12 30 13 c46
20 137 17 199 -6 72 -28 148 -102 174 -172 10 -29 22 -90 26 -135 7 -91 35
-191 73 -268 31 -61 83 -138 89 -132 4 4 183 847 185 872 2 22 19 -55 99 -442z"/>
</g>
</svg>
