<?xml version="1.0" encoding="utf-8"?>
<!-- Generator: Adobe Illustrator 21.0.1, SVG Export Plug-In . SVG Version: 6.00 Build 0)  -->
<svg version="1.1" id="Layer_1" xmlns="http://www.w3.org/2000/svg" xmlns:xlink="http://www.w3.org/1999/xlink" x="0px" y="0px"
	 viewBox="0 0 30 30" style="enable-background:new 0 0 30 30;" xml:space="preserve">
<style type="text/css">
	.st0{fill-rule:evenodd;clip-rule:evenodd;fill:#FFFFFF;}
</style>
<path class="st0" d="M9.7,0.5h6.1c3.9,0,8.4,4.4,8.4,8.5v0.8c0,0.9,0.7,1.7,2,1.7h1.3c1.6,0,2,0.9,2,2.2v7c0,4.9-4.1,8.9-8.9,8.9
	H8.9c-4.3,0-8.5-4-8.5-8.8v-11C0.5,4.5,4.5,0.5,9.7,0.5L9.7,0.5z M9.7,8.1H15c0.9,0,1.7,0.8,1.7,1.7c0,0.9-0.8,1.7-1.7,1.7H9.7
	C8.8,11.5,8,10.7,8,9.8C8,8.9,8.8,8.1,9.7,8.1L9.7,8.1z M9.7,18.6h10.5c0.9,0,1.7,0.8,1.7,1.7c0,0.9-0.8,1.7-1.7,1.7H9.7
	C8.8,22,8,21.2,8,20.3C8,19.4,8.8,18.6,9.7,18.6L9.7,18.6z"/>
</svg>
