<svg id="Layer_1" data-name="Layer 1" xmlns="http://www.w3.org/2000/svg" viewBox="0 0 187.38 48"><title>logo-white</title><g style="isolation:isolate"><text transform="translate(63.2 32.05)" font-size="24.6" fill="#fff" font-family="MinionPro-Regular, Minion Pro" letter-spacing="-0.01em" style="isolation:isolate">S</text><text transform="translate(74.71 32.05)" font-size="24.6" fill="#fff" font-family="MinionPro-Regular, Minion Pro" style="isolation:isolate">m</text><text transform="translate(94.86 32.05)" font-size="24.6" fill="#fff" font-family="MinionPro-Regular, Minion Pro" letter-spacing="-0.01em" style="isolation:isolate">i</text><text transform="translate(101.16 32.05)" font-size="24.6" fill="#fff" font-family="MinionPro-Regular, Minion Pro" letter-spacing="0.01em" style="isolation:isolate">t</text><text transform="translate(108.81 32.05)" font-size="24.6" fill="#fff" font-family="MinionPro-Regular, Minion Pro" letter-spacing="-0.01em" style="isolation:isolate">h</text><text transform="translate(121.75 32.05)" font-size="24.6" fill="#fff" font-family="MinionPro-Regular, Minion Pro" letter-spacing="0.01em" style="isolation:isolate">s</text><text transform="translate(130.97 32.05)" font-size="24.6" fill="#fff" font-family="MinionPro-Regular, Minion Pro" letter-spacing="-0.01em" style="isolation:isolate">o</text><text transform="translate(143.22 32.05)" font-size="24.6" fill="#fff" font-family="MinionPro-Regular, Minion Pro" style="isolation:isolate">n</text><text transform="translate(156.68 32.05)" font-size="24.6" fill="#fff" font-family="MinionPro-Regular, Minion Pro" style="isolation:isolate">i</text><text transform="translate(163.34 32.05)" font-size="24.6" fill="#fff" font-family="MinionPro-Regular, Minion Pro" letter-spacing="-0.01em" style="isolation:isolate">a</text><text transform="translate(173.92 32.05)" font-size="24.6" fill="#fff" font-family="MinionPro-Regular, Minion Pro" style="isolation:isolate">n</text></g><path d="M40.93,29.68a5.89,5.89,0,0,0-5-3.15h0L48,24,35.89,21.48h0a9.8,9.8,0,0,1,6-2.24c2.66,0,5-3.3,3.5-5.81,0,0-.44,3.94-5.41,2.63a5.88,5.88,0,0,0-5.8,1.34h0L41,7,30.62,13.81h0A9.8,9.8,0,0,1,33.28,8c1.86-1.91,1.18-5.85-1.63-6.58,0,0,2.47,3.09-2,5.68a5.89,5.89,0,0,0-3.15,5h0L24,0,21.48,12.11h0a9.8,9.8,0,0,1-2.25-6c0-2.66-3.3-5-5.81-3.5,0,0,3.94.44,2.63,5.41a5.88,5.88,0,0,0,1.34,5.8h0L7,7H7l5.53,8.43,1.26,1.92h0A9.8,9.8,0,0,1,8,14.72c-1.91-1.86-5.85-1.18-6.58,1.63,0,0,3.09-2.47,5.68,2a5.88,5.88,0,0,0,5,3.15h0L0,24l12.11,2.52h0a9.8,9.8,0,0,1-6,2.25c-2.66,0-5,3.3-3.5,5.81C2.6,34.58,3,30.64,8,32a5.88,5.88,0,0,0,5.8-1.34h0L7,41l10.35-6.78A9.79,9.79,0,0,1,14.72,40c-1.86,1.91-1.18,5.85,1.63,6.58,0,0-2.47-3.09,2-5.68a5.88,5.88,0,0,0,3.15-5h0L24,48l2.52-12.11h0a9.8,9.8,0,0,1,2.25,6c0,2.67,3.3,5,5.81,3.5,0,0-3.94-.44-2.63-5.41a5.88,5.88,0,0,0-1.34-5.8h0L41,41l-3.58-5.46-3.2-4.89h0A9.79,9.79,0,0,1,40,33.28c1.91,1.86,5.85,1.18,6.58-1.63C46.61,31.65,43.52,34.13,40.93,29.68Z" fill="#fff"/></svg>