<?xml version="1.0" encoding="UTF-8" standalone="no"?>
<!DOCTYPE svg  PUBLIC '-//W3C//DTD SVG 1.1//EN'  'http://www.w3.org/Graphics/SVG/1.1/DTD/svg11.dtd'>
<svg version="1.1" xmlns="http://www.w3.org/2000/svg">
<defs>
<font id="MinionPro-BoldCnIt" horiz-adv-x="464">
<font-face panose-1="2 4 7 6 6 2 1 9 2 3" x-height="454" descent="-273" font-family="Minion Pro Cond" ascent="727" unicode-range="U+0020-00FE" font-weight="700" slope="-12" underline-thickness="50" units-per-em="1000" font-stretch="condensed" bbox="-134 -250 933 854" font-style="italic" underline-position="-150" cap-height="642"/>
<missing-glyph/>
<glyph horiz-adv-x="196" unicode=" " glyph-name="space"/>
<glyph horiz-adv-x="249" d="M288 612q-2 -11 -21 -69q-19 -55 -55.5 -165.5t-55.5 -165.5q-4 -9 -21.5 -9t-19.5 9q2 38 6.5 104.5t8 122t6.5 104.5q3 59 6 74q5 38 81 38h1q39 0 53 -12t11 -31zM178 71v-1q0 -37 -23 -59.5t-53 -22.5h-1q-27 0 -45 21t-18 51q0 36 21 60t54 24q28 0 46.5 -20.5 t18.5 -52.5z" unicode="!" glyph-name="exclam"/>
<glyph horiz-adv-x="351" d="M245 699l12 -9q-6 -29 -39 -110t-58 -128l-39 -17q9 58 17.5 140t7.5 96zM412 699l13 -9q-7 -29 -40.5 -110.5t-57.5 -127.5l-38 -17q9 63 17 143t7 93z" unicode='&quot;' glyph-name="quotedbl"/>
<glyph d="M474 470l-17 -82h-83l-37 -124h72l-16 -82h-81l-49 -169h-48l50 169h-97l-50 -169h-49l51 169h-83l15 82h92l37 124h-79l17 82h86l43 145h50l-44 -145h96l43 145h49l-44 -145h76zM326 388h-97l-36 -124h96z" unicode="#" glyph-name="numbersign"/>
<glyph d="M440 454l-31 -4q-12 111 -84 128l-41 -203l15 -9q63 -39 95 -77t32 -97q0 -85 -64.5 -133t-150.5 -50l-15 -80h-38l16 80q-91 8 -140 53v63t-1 78l30 3q4 -32 15 -62.5t38.5 -60t65.5 -36.5l42 222l-12 8q-59 36 -88.5 73.5t-29.5 91.5q0 75 55.5 123.5t144.5 50.5l15 72 h38l-15 -72q46 -5 112 -35q0 -13 -4 -127zM250 393l37 187q-44 -1 -70 -30.5t-26 -67.5q0 -51 59 -89zM258 251l-39 -207q49 4 75.5 34t26.5 77q0 57 -63 96z" unicode="$" glyph-name="dollar"/>
<glyph horiz-adv-x="762" d="M654 621l-476 -657l-33 27l475 657zM389 499v-1q0 -85 -50.5 -154.5t-130.5 -69.5q-60 0 -89 39.5t-29 92.5q0 89 50 159t131 70q59 0 88.5 -40t29.5 -96zM301 533v1q0 67 -35 67q-27 0 -48 -42.5t-30.5 -90t-9.5 -80.5q0 -79 35 -79q30 0 51.5 48t29 96t7.5 80zM721 213 v-1q0 -84 -51 -154t-130 -70q-60 0 -89 39.5t-29 92.5q0 90 50 159.5t131 69.5q59 0 88.5 -39.5t29.5 -96.5zM633 247v1q0 67 -35 67q-39 0 -63.5 -78t-24.5 -138q0 -76 35 -76q22 0 40.5 27.5t28 67t14.5 74t5 55.5z" unicode="%" glyph-name="percent"/>
<glyph horiz-adv-x="704" d="M662 421h34q2 -26 2 -68q-2 -127 -56 -127q-19 0 -44 19q-3 2 -48 37q-29 -120 -94 -195q-86 -99 -204 -99q-85 0 -139 58.5t-54 156.5q0 122 82 210q28 30 63 51t62 21q30 0 46.5 -20t17.5 -51v-15l1 -1q91 93 91 178q0 19 -6 39q-5 14 10 30t34 16q20 0 32 -15.5 t12 -42.5q0 -86 -112 -198q-101 -103 -225 -190q11 -62 48.5 -94.5t85.5 -32.5q150 0 217 217q-42 37 -76 37q-10 0 -16 -6t-6 -15q0 -15 11 -33q12 -20 12 -25q-1 -13 -15 -23t-27 -10q-17 0 -29.5 16.5t-11.5 37.5q1 47 56 92q40 36 77 36q42 0 122 -63q21 -15 27 -15 q16 0 20 87zM223 435h-1q-19 0 -40.5 -45.5t-21.5 -109.5q0 -17 1 -25q48 36 79 65q14 15 15 45q1 31 -9.5 50.5t-22.5 19.5z" unicode="&amp;" glyph-name="ampersand"/>
<glyph horiz-adv-x="182" d="M245 699l12 -9q-6 -28 -38.5 -108.5t-57.5 -129.5l-40 -17q9 53 17.5 137t7.5 99z" unicode="&apos;" glyph-name="quotesingle"/>
<glyph horiz-adv-x="345" d="M384 710l17 -27q-113 -81 -174 -231t-61 -326q0 -175 61 -275l-27 -19q-59 57 -90 148t-31 187q0 174 79.5 321.5t225.5 221.5z" unicode="(" glyph-name="parenleft"/>
<glyph horiz-adv-x="336" d="M156 689l27 21q60 -57 90.5 -146.5t30.5 -187.5q1 -173 -79 -321.5t-226 -222.5l-18 29q114 80 175 230.5t60 325.5q0 174 -60 272z" unicode=")" glyph-name="parenright"/>
<glyph horiz-adv-x="417" d="M447 495l2 -27l-135 -30l34 -146l-24 -9l-72 134l-130 -76l-15 24l104 101l-103 111l17 22l125 -81l62 137l26 -6l-25 -148z" unicode="*" glyph-name="asterisk"/>
<glyph horiz-adv-x="597" d="M566 222h-206v-222h-73v222h-206v63h206v200h73v-200h206v-63z" unicode="+" glyph-name="plus"/>
<glyph horiz-adv-x="239" d="M0 -129l-13 33q100 44 100 108q0 47 -47 63q-13 5 -13 21q0 27 18.5 45t42.5 18q38 0 61.5 -31.5t23.5 -74.5q0 -69 -51 -116t-122 -66z" unicode="," glyph-name="comma"/>
<glyph horiz-adv-x="298" d="M272 266l-20 -70h-218l20 70h218z" unicode="-" glyph-name="hyphen"/>
<glyph horiz-adv-x="239" d="M97 -12h-1q-27 0 -45 20.5t-18 50.5q0 35 21 59t53 24q28 0 46 -20.5t18 -51.5q0 -37 -22.5 -59.5t-51.5 -22.5z" unicode="." glyph-name="period"/>
<glyph horiz-adv-x="258" d="M322 655l-259 -700h-64l259 700h64z" unicode="/" glyph-name="slash"/>
<glyph d="M317 635h1q61 0 98 -40t47 -100t2 -136q-4 -48 -15.5 -97.5t-33.5 -99t-51.5 -88t-72.5 -62.5t-93 -24q-49 0 -83.5 24t-50 64t-21 90.5t2.5 103.5q4 47 16 95t34.5 97t52.5 87t73.5 62t93.5 24zM311 599h-1q-34 0 -65.5 -62t-49.5 -142t-26 -159q-15 -81 -7 -146t43 -65 q47 0 86 116.5t53 247.5q14 74 7 142t-40 68z" unicode="0" glyph-name="zero"/>
<glyph d="M382 635l-101 -515q-11 -52 0 -67t69 -21l-7 -32h-284l7 32q55 6 69.5 19.5t25.5 68.5l72 361q8 44 0.5 56t-42.5 14l-30 2l8 30q96 13 213 52z" unicode="1" glyph-name="one"/>
<glyph d="M92 494l66 85q56 56 136 56q71 0 115.5 -42.5t44.5 -116.5q0 -17 -3.5 -34.5t-7.5 -31.5t-15 -31.5t-18 -29t-24.5 -30.5t-26 -28.5t-31.5 -30t-32.5 -29t-37.5 -32.5t-38 -33l-70 -61h149q39 0 56 9.5t43 48.5l30 -12q-22 -51 -55 -151h-371l5 27q102 90 171 159 q151 153 151 260q0 103 -87 103q-26 0 -51.5 -14t-39 -27t-34.5 -38z" unicode="2" glyph-name="two"/>
<glyph d="M111 512l50 64q22 25 58.5 42t78.5 17q58 0 99.5 -33.5t41.5 -92.5q0 -50 -43 -82q-33 -25 -82 -52l-1 -2q50 -14 82.5 -51.5t32.5 -92.5q0 -103 -109 -178q-92 -63 -177 -63q-66 0 -105 35q-24 20 -21 45q3 13 13 26.5t21 19.5q15 10 28 -3q67 -67 128 -67q45 0 71.5 36 t26.5 106q0 60 -30.5 92.5t-76.5 32.5q-24 0 -45 -7l-6 33q33 10 57.5 20t53.5 27t45 41.5t16 55.5q0 35 -19.5 55.5t-51.5 20.5q-54 0 -112 -68z" unicode="3" glyph-name="three"/>
<glyph d="M456 229l-11 -52h-78l-13 -69q-8 -46 1.5 -58.5t60.5 -18.5l-7 -31h-268l7 31q51 5 65 17.5t23 59.5l14 69h-236l6 33q220 271 367 419h65l-76 -400h80zM318 500h-3q-108 -123 -219 -271h163z" unicode="4" glyph-name="four"/>
<glyph d="M464 623l-39 -104h-230l-49 -153q83 24 108 24q72 0 121 -42t48 -119q-1 -108 -120 -187q-83 -54 -163 -54q-66 0 -102 36q-20 21 -17 43q2 12 12 25.5t20 19.5q15 9 27 -1q65 -65 127 -65q98 0 98 129q0 74 -37 111.5t-98 37.5q-32 0 -73 -11l-7 9l84 301h290z" unicode="5" glyph-name="five"/>
<glyph d="M487 641l7 -36q-60 -12 -108 -34q-134 -66 -192 -208h1l48 21q34 14 52 15q68 0 110 -44.5t42 -126.5q0 -94 -66.5 -167t-166.5 -73q-84 0 -132.5 57.5t-48.5 151.5q0 132 82 246.5t239 167.5q53 19 133 30zM234 336h-1q-26 0 -52 -13q-24 -62 -24 -158q0 -54 19 -96.5 t54 -42.5q44 0 68.5 57.5t24.5 123.5q0 62 -23.5 95.5t-65.5 33.5z" unicode="6" glyph-name="six"/>
<glyph d="M515 623l6 -10q-64 -113 -189 -323.5t-171 -289.5l-102 -12l-5 14q233 293 363 516h-191q-46 0 -61.5 -10t-36.5 -52l-34 5q23 68 49 162h372z" unicode="7" glyph-name="seven"/>
<glyph d="M302 635h1q65 0 109.5 -38.5t44.5 -105.5q0 -51 -45 -90q-21 -17 -79 -56q50 -41 75.5 -77t25.5 -85q0 -84 -69 -139.5t-156 -55.5q-80 0 -132 43t-52 113q0 63 56 107q45 34 100 64q-76 67 -76 139q0 76 58 128.5t139 52.5zM288 596h-1q-32 0 -54.5 -27.5t-22.5 -67.5 q0 -30 16.5 -58t32.5 -42t44 -34q59 49 59 128q0 45 -20.5 73t-53.5 28zM225 27h1q41 0 67 31.5t26 78.5q0 45 -26.5 80t-82.5 77q-76 -60 -76 -148q0 -45 23.5 -82t67.5 -37z" unicode="8" glyph-name="eight"/>
<glyph d="M298 635h1q85 0 131.5 -57.5t46.5 -154.5q0 -131 -75.5 -244t-209.5 -165q-30 -11 -79 -20.5t-74 -9.5l-5 31q102 25 179 92t114 173l-54 -25q-30 -14 -45 -14q-66 0 -111 43.5t-45 118.5q0 90 66.5 161t159.5 71zM288 597h-1q-39 0 -65.5 -54.5t-26.5 -113.5 q0 -57 23.5 -91t68.5 -34q25 0 47 15q21 46 21 139q0 139 -67 139z" unicode="9" glyph-name="nine"/>
<glyph horiz-adv-x="238" d="M140 271h-1q-27 0 -44.5 20t-17.5 50q0 35 20.5 58.5t52.5 23.5q28 0 45.5 -20t17.5 -51q0 -36 -22 -58.5t-51 -22.5zM96 -12h-1q-27 0 -44.5 20t-17.5 50q0 35 20.5 58.5t52.5 23.5q28 0 45.5 -20t17.5 -51q0 -36 -22 -58.5t-51 -22.5z" unicode=":" glyph-name="colon"/>
<glyph horiz-adv-x="239" d="M134 271h-1q-27 0 -44 20t-17 50q0 35 20.5 58.5t52.5 23.5q27 0 45 -20t18 -51q0 -36 -22.5 -58.5t-51.5 -22.5zM0 -130l-14 34q101 44 101 108q0 46 -47 62q-13 5 -13 22q0 27 18.5 45t42.5 18q38 0 61.5 -31.5t23.5 -74.5q0 -70 -50.5 -117t-122.5 -66z" unicode=";" glyph-name="semicolon"/>
<glyph horiz-adv-x="597" d="M539 0l-467 220v66l467 220v-69l-396 -183v-2l396 -183v-69z" unicode="&lt;" glyph-name="less"/>
<glyph horiz-adv-x="597" d="M564 313h-484v63h484v-63zM564 131h-484v63h484v-63z" unicode="=" glyph-name="equal"/>
<glyph horiz-adv-x="597" d="M571 220l-467 -220v69l396 183v2l-396 183v69l467 -220v-66z" unicode="&gt;" glyph-name="greater"/>
<glyph horiz-adv-x="352" d="M208 214l-25 -21q-36 17 -64.5 48.5t-28.5 72.5q0 30 19 56.5t39.5 40.5t56.5 35q8 4 20.5 11.5t20.5 12t19 11t18 11t15.5 10.5t13.5 10.5t9.5 10t6.5 10t2 9.5q0 12 -9.5 20t-26.5 8q-34 0 -63 -13.5t-47.5 -27t-24.5 -13.5q-13 0 -27.5 19.5t-14.5 41.5q0 23 28 44 q50 34 98 34h1q58 0 100 -46t42 -109q0 -79 -80 -128q-7 -4 -32 -18.5t-34 -21t-24 -18.5t-21 -23t-6 -23q0 -28 19 -54zM140 -12h-1q-28 0 -46 21t-18 51q0 36 21 60t54 24q28 0 46.5 -20.5t18.5 -52.5q0 -37 -22.5 -60t-52.5 -23z" unicode="?" glyph-name="question"/>
<glyph horiz-adv-x="719" d="M512 -22l10 -31q-78 -45 -180 -45q-121 0 -203.5 77.5t-82.5 209.5q0 112 54 201.5t140 136t183 46.5q124 0 193.5 -73.5t67.5 -175.5q-2 -111 -70 -181.5t-172 -70.5q-35 0 -44.5 17t-1.5 53l10 40l-2 1q-28 -37 -73.5 -74.5t-76.5 -37.5q-22 0 -36.5 24.5t-13.5 66.5 q3 106 79 182q30 30 77.5 51.5t91.5 21.5q19 0 51 -9q12 -4 35 -4q-20 -68 -52 -216q-16 -71 7 -71q49 1 94 53t46 148q1 98 -59.5 155.5t-156.5 57.5q-125 0 -210.5 -92.5t-85.5 -232.5q0 -50 13.5 -94t41.5 -81t77 -58.5t115 -21.5q78 0 134 27zM417 376h-1q-28 0 -53 -28 q-20 -21 -35.5 -67.5t-16.5 -92.5q-1 -45 17 -45q13 0 42.5 28.5t58.5 77.5q22 62 32 116q-17 11 -44 11z" unicode="@" glyph-name="at"/>
<glyph horiz-adv-x="607" d="M566 31l-8 -31h-250l8 31q37 4 47 16t7 42q-2 26 -7 69t-6 49h-166q-35 -74 -52 -113q-15 -31 -6 -44t57 -19l-7 -31h-205l7 31q41 5 61 22.5t53 78.5l275 510l45 12l18 -139q8 -65 26.5 -197t27.5 -201q8 -52 20 -67t55 -19zM352 254l-25 220h-2q-10 -20 -49.5 -97.5 t-61.5 -122.5h138z" unicode="A" glyph-name="A"/>
<glyph horiz-adv-x="578" d="M121 642h237q201 0 201 -139q0 -67 -47 -103.5t-116 -48.5v-2q144 -30 144 -152q0 -52 -30 -93t-78 -66q-71 -38 -204 -38h-229l7 31q48 4 62.5 19t25.5 71l79 399q11 57 0.5 71.5t-61.5 19.5zM263 364h25q70 0 105.5 37.5t35.5 102.5q0 51 -24.5 75.5t-56.5 24.5 q-27 0 -35 -11q-10 -12 -16 -46zM254 325l-39 -206q-16 -82 52 -82q52 0 94.5 45.5t42.5 121.5q0 121 -125 121h-25z" unicode="B" glyph-name="B"/>
<glyph horiz-adv-x="572" d="M511 173l29 -16q-32 -79 -71 -147q-79 -23 -153 -23q-118 0 -187.5 69.5t-69.5 196.5q0 175 111.5 288.5t274.5 113.5q83 0 149 -25q-2 -27 -6.5 -81t-5.5 -77l-33 -3q-10 80 -38.5 113.5t-84.5 33.5q-91 0 -160.5 -108.5t-69.5 -261.5q0 -102 35 -160.5t94 -58.5 q48 0 91 36.5t95 109.5z" unicode="C" glyph-name="C"/>
<glyph horiz-adv-x="652" d="M120 642h226q147 0 223 -67t76 -197q0 -93 -40.5 -174.5t-112.5 -130.5q-108 -73 -276 -73h-217l7 31q48 4 63 20t26 71l75 386q12 64 2.5 81t-60.5 21zM298 538l-78 -406q-11 -54 3 -73q11 -18 44 -18q103 0 173 104t70 250q0 99 -41.5 153.5t-109.5 54.5q-31 0 -43 -11 q-9 -8 -18 -54z" unicode="D" glyph-name="D"/>
<glyph horiz-adv-x="535" d="M120 642h424q-15 -115 -19 -149l-32 -2q-2 63 -16 85q-8 16 -24.5 21.5t-54.5 5.5h-53q-23 0 -30 -6.5t-11 -29.5l-41 -209h67q56 0 71.5 11t36.5 64h33l-40 -202h-33q1 55 -11 68t-68 13h-65l-33 -175q-12 -68 2 -82q15 -16 81 -16q74 0 109 34q31 30 66 90l32 -12 q-32 -93 -59 -151h-455l7 31q52 5 65.5 18.5t25.5 75.5l77 395q11 58 1 72t-62 19z" unicode="E" glyph-name="E"/>
<glyph horiz-adv-x="507" d="M119 642h431q-2 -10 -5 -36t-7.5 -61t-7.5 -55l-32 -3q-5 66 -15 86q-7 17 -26 23.5t-59 6.5h-54q-21 0 -28.5 -7.5t-12.5 -32.5l-42 -217h78q58 0 75 12.5t37 62.5h32l-38 -203h-34q1 55 -13.5 69t-71.5 14h-75l-33 -180q-11 -57 0.5 -71.5t70.5 -18.5l-6 -31h-280l6 31 q47 5 61 20t25 72l75 389q12 63 3 79t-61 20z" unicode="F" glyph-name="F"/>
<glyph horiz-adv-x="620" d="M595 473l-34 -3q-14 146 -126 146q-95 0 -166.5 -108t-71.5 -253q0 -104 38.5 -166.5t104.5 -62.5q50 0 60 58l21 109q8 46 -6 58t-75 18l7 31h267l-8 -31q-34 -5 -44 -17t-19 -59l-18 -92q-8 -40 -6 -80q-129 -34 -191 -34q-127 0 -198 71t-71 199q0 174 112 286 t285 112q85 0 152 -25q-11 -129 -13 -157z" unicode="G" glyph-name="G"/>
<glyph horiz-adv-x="682" d="M734 642l-7 -31q-51 -4 -64 -18t-24 -70l-78 -403q-10 -55 0 -69.5t63 -19.5l-8 -31h-271l7 31q49 5 63 19t24 70l36 196h-220l-37 -196q-11 -54 -1 -69.5t59 -19.5l-6 -31h-269l7 31q50 5 63 18.5t24 70.5l79 403q10 54 -1.5 68.5t-65.5 19.5l7 31h269l-7 -31 q-44 -4 -56.5 -18.5t-23.5 -69.5l-30 -159h219l31 159q10 55 0.5 69.5t-58.5 18.5l8 31h268z" unicode="H" glyph-name="H"/>
<glyph horiz-adv-x="338" d="M389 642l-8 -31q-49 -4 -62 -18.5t-24 -73.5l-77 -397q-10 -56 0 -71t62 -20l-7 -31h-272l7 31q48 4 62 19t25 72l77 397q12 59 2 73t-64 19l7 31h272z" unicode="I" glyph-name="I"/>
<glyph horiz-adv-x="327" d="M385 642l-7 -31q-47 -4 -58.5 -17.5t-22.5 -72.5l-73 -395q-29 -154 -103 -212q-31 -30 -74 -47.5t-73 -18.5l-7 35q75 16 98 94q15 50 37 157l73 387q11 56 0.5 70.5t-64.5 19.5l7 31h267z" unicode="J" glyph-name="J"/>
<glyph horiz-adv-x="619" d="M687 642l-8 -30q-46 -6 -70.5 -18.5t-65.5 -50.5q-96 -88 -164 -160q84 -196 125 -275q23 -45 39.5 -59t53.5 -18l-8 -31h-178q-30 64 -124 291q-13 31 -34 28l-35 -195q-11 -57 -1 -73t59 -20l-8 -31h-261l7 31q44 4 57 19t24 74l78 395q12 57 2 72.5t-62 19.5l8 31h263 l-8 -31q-46 -3 -59 -17.5t-24 -73.5l-33 -169q36 9 74 44q88 81 154 164q22 27 19 36.5t-29 13.5l-18 2l8 31h219z" unicode="K" glyph-name="K"/>
<glyph horiz-adv-x="512" d="M459 169l32 -12q-1 -1 -26.5 -69t-33.5 -88h-436l8 30q52 5 66 19.5t25 72.5l80 406q10 51 -0.5 65t-63.5 18l7 31h275l-7 -31q-51 -4 -65 -17.5t-24 -65.5l-77 -405q-11 -54 3 -69q15 -15 71 -15q65 0 102 37q29 29 64 93z" unicode="L" glyph-name="L"/>
<glyph horiz-adv-x="800" d="M829 642l-8 -31q-51 -6 -62.5 -21t-22.5 -80q-19 -125 -52 -384q-8 -60 1.5 -74.5t61.5 -20.5l-8 -31h-263l8 31q43 6 55 21t22 75q12 76 34 208t32 198h-3l-283 -524h-30q-26 204 -69 520h-3l-69 -265q-33 -122 -38 -171q-5 -34 8 -45.5t60 -16.5l-8 -31h-212l7 31 q39 5 55 16.5t29 48.5q24 65 57 180l61 214q21 77 11.5 96t-68.5 25l9 31h190q9 -50 35 -192.5t40 -222.5l238 415h185z" unicode="M" glyph-name="M"/>
<glyph horiz-adv-x="629" d="M699 642l-8 -31q-41 -3 -56 -15.5t-23 -43.5q-18 -65 -37 -164l-76 -398h-49l-236 498h-3l-45 -236q-18 -96 -23 -159q-2 -32 14 -45t65 -17l-7 -31h-221l8 31q34 3 51.5 16t27.5 43q16 54 40 167l47 230q12 55 -5 89q-9 17 -24.5 24.5t-46.5 10.5l8 31h169l221 -443h3 l35 188q19 110 23 160q3 35 -12 47.5t-67 16.5l7 31h220z" unicode="N" glyph-name="N"/>
<glyph horiz-adv-x="633" d="M396 655h1q109 0 169 -72t60 -192q0 -107 -41.5 -199t-119 -148.5t-174.5 -56.5q-106 0 -168.5 70t-62.5 186q0 171 97.5 291.5t238.5 120.5zM392 616h-1q-76 0 -136 -124t-60 -281q0 -83 25 -134t77 -51q55 0 101 66t69.5 158.5t23.5 182.5q0 183 -99 183z" unicode="O" glyph-name="O"/>
<glyph horiz-adv-x="553" d="M122 642h227q220 0 220 -173q0 -91 -63.5 -150t-164.5 -68q-6 0 -17.5 0.5t-15.5 0.5l-62 18l-29 -152q-10 -56 0.5 -68.5t69.5 -18.5l-6 -31h-280l8 31q47 5 60.5 18.5t24.5 68.5l80 404q10 58 1 70.5t-61 17.5zM299 545l-45 -238q22 -11 50 -11q58 0 96.5 55.5 t38.5 132.5q0 58 -25.5 89.5t-65.5 31.5q-20 0 -31 -9q-10 -6 -18 -51z" unicode="P" glyph-name="P"/>
<glyph horiz-adv-x="632" d="M593 -132l-7 -25q-74 -8 -129 11q-72 27 -195 128l-9 9q-88 11 -141 79t-53 174q0 170 98 290.5t240 120.5q108 0 168 -71.5t60 -192.5q0 -139 -64.5 -244t-169.5 -141l10 -9q115 -91 192 -129zM266 31l65 21q11 -7 22 -18q56 30 96 153.5t40 249.5q0 179 -99 179 q-51 0 -96.5 -58.5t-72 -151.5t-26.5 -193q0 -152 71 -182z" unicode="Q" glyph-name="Q"/>
<glyph horiz-adv-x="597" d="M577 20l-8 -29l-27 1q-83 3 -116 23.5t-57 72.5q-14 31 -54 145q-9 27 -18.5 37t-28.5 10h-21l-30 -159q-11 -55 -1.5 -70t58.5 -20l-7 -31h-264l7 31q47 5 60 19.5t24 69.5l79 403q11 56 1.5 69.5t-59.5 18.5l8 31h233q96 0 145 -31q62 -41 62 -123q0 -67 -40.5 -113 t-105.5 -68q23 -72 51 -135q37 -86 54 -109q19 -29 55 -43zM254 318h28q55 0 87 22q31 19 48 58t17 87q0 54 -24.5 87t-61.5 33q-22 0 -33 -9q-8 -8 -16 -47z" unicode="R" glyph-name="R"/>
<glyph horiz-adv-x="452" d="M29 198l32 3q6 -38 20.5 -75t48.5 -69t78 -32q47 0 73.5 31.5t26.5 77.5q0 64 -75 130l-26 22q-50 42 -78.5 84.5t-28.5 98.5q0 82 59.5 134t147.5 52q53 0 103 -16q8 -3 41 -16q-5 -45 -8 -146l-34 -3q-4 29 -9.5 50t-17 44.5t-32.5 36t-51 12.5q-43 0 -67.5 -31 t-24.5 -67q0 -60 72 -120l31 -25q56 -45 85 -88.5t29 -101.5q0 -92 -66 -144.5t-162 -52.5q-54 0 -102 19t-64 40v64t-1 88z" unicode="S" glyph-name="S"/>
<glyph horiz-adv-x="557" d="M590 667h24q-8 -40 -27 -180l-34 -2q0 66 -13 93q-14 25 -75 25h-44l-93 -478q-11 -57 0.5 -73t72.5 -21l-7 -31h-293l6 31q54 5 70 21.5t27 72.5l95 478h-38q-64 0 -92 -30q-22 -25 -50 -88h-35q32 109 46 182h23q7 -16 15 -20.5t27 -4.5h346q16 0 25.5 5t23.5 20z" unicode="T" glyph-name="T"/>
<glyph horiz-adv-x="628" d="M704 642l-8 -31q-40 -2 -56 -15.5t-26 -47.5q-13 -42 -35 -149l-22 -111q-33 -167 -100 -236q-63 -65 -164 -65q-96 0 -147 54q-65 66 -35 226l48 249q11 60 1 75t-61 20l8 31h267l-7 -31q-47 -5 -59.5 -20t-24.5 -75l-49 -254q-22 -113 7.5 -161t91.5 -48q69 0 111.5 60 t65.5 181l20 105q19 102 22 150q3 32 -14 45t-65 17l8 31h223z" unicode="U" glyph-name="U"/>
<glyph horiz-adv-x="611" d="M691 642l-7 -32q-43 -5 -61.5 -21t-51.5 -75q-75 -129 -279 -522h-46q-35 246 -78 526q-9 58 -21 73t-55 19l7 32h251l-7 -32l-23 -3q-25 -4 -30.5 -12.5t-2.5 -34.5q5 -66 53 -388h2q126 235 183 364q17 41 12.5 54.5t-35.5 17.5l-22 2l8 32h203z" unicode="V" glyph-name="V"/>
<glyph horiz-adv-x="869" d="M933 642l-7 -31q-43 -7 -59 -22t-46 -77q-76 -153 -239 -522h-47l-62 435h-2l-202 -435h-46l-48 526q-5 59 -17 75t-56 20l7 31h249l-6 -31l-21 -4q-26 -5 -32.5 -17t-3.5 -51l23 -347h2l200 443h41l64 -449h2q83 183 144 342q18 45 13 60t-44 20l-20 3l7 31h206z" unicode="W" glyph-name="W"/>
<glyph horiz-adv-x="601" d="M639 642l-6 -31q-45 -5 -66 -17t-57 -51q-28 -31 -137 -171l99 -259q18 -47 35.5 -62t63.5 -20l-7 -31h-269l8 31l19 3q24 4 29.5 16t-3.5 38q-24 75 -63 182q-66 -90 -122 -177q-18 -26 -15 -39t28 -19l21 -4l-8 -31h-214l7 31q62 8 105 55q72 80 181 224l-84 223 q-16 46 -32 59.5t-61 18.5l8 31h251l-7 -31l-22 -4q-18 -4 -22 -12t1 -27q14 -39 57 -154q59 75 102 144q26 43 -16 50l-21 3l7 31h210z" unicode="X" glyph-name="X"/>
<glyph horiz-adv-x="573" d="M650 642l-9 -32q-42 -5 -61 -18.5t-54 -62.5q-39 -54 -134 -207q-20 -32 -27 -66l-26 -127q-12 -61 0 -77t71 -21l-7 -31h-291l8 31q54 5 69 20.5t27 77.5l24 117q8 34 -1 64q-36 132 -64 227q-14 44 -27.5 56t-52.5 17l8 32h246l-7 -31l-27 -6q-20 -4 -24.5 -14t2.5 -33 q46 -170 62 -223q85 135 132 226q12 22 7 32t-33 14l-23 3l8 32h204z" unicode="Y" glyph-name="Y"/>
<glyph horiz-adv-x="547" d="M572 642l7 -14q-299 -425 -408 -584q35 -5 105 -5q109 0 144 35q36 33 74 103l31 -14q-6 -16 -28 -81.5t-28 -81.5h-463l-7 16q244 338 414 587h-96q-56 0 -80 -7.5t-39 -22.5q-30 -34 -53 -94l-34 6q22 79 43 182h25q6 -16 14 -20.5t26 -4.5h353z" unicode="Z" glyph-name="Z"/>
<glyph horiz-adv-x="343" d="M382 704l-7 -34q-65 -8 -80 -22t-27 -74l-116 -607q-12 -61 -1 -74t76 -21l-7 -34h-173l167 866h168z" unicode="[" glyph-name="bracketleft"/>
<glyph horiz-adv-x="354" d="M304 -45h-62l-158 700h62z" unicode="\" glyph-name="backslash"/>
<glyph horiz-adv-x="343" d="M334 704l-167 -866h-168l7 34q65 9 80 22t27 74l116 607q5 24 7 36t-0.5 23.5t-5 16t-15.5 9t-24 6t-37 4.5l7 34h173z" unicode="]" glyph-name="bracketright"/>
<glyph horiz-adv-x="526" d="M505 213l-76 1l-147 337l-147 -338h-72l188 410h66z" unicode="^" glyph-name="asciicircum"/>
<glyph horiz-adv-x="500" d="M500 -125h-500v50h500v-50z" unicode="_" glyph-name="underscore"/>
<glyph horiz-adv-x="400" d="M315 496l-35 -10q-51 94 -96 166l4 14q12 5 49.5 11t50.5 4q9 -61 27 -185z" unicode="`" glyph-name="grave"/>
<glyph horiz-adv-x="488" d="M457 126l16 -25q-46 -55 -93.5 -84t-74.5 -29q-45 0 -25 101l10 51h-2q-44 -62 -94 -103q-59 -49 -98 -49q-28 0 -46.5 30t-18.5 86q0 71 29 142.5t76 118.5q35 35 94 62t110 27h1q25 0 59 -8q29 -7 54 -7l5 -4q-40 -166 -67 -319q-6 -35 3 -35q6 0 26 14.5t36 30.5z M291 406h-1q-25 0 -45 -17q-42 -35 -66 -111.5t-24 -151.5q0 -49 20 -49q21 0 67 56t59 86q11 44 40 174q-24 13 -50 13z" unicode="a" glyph-name="a"/>
<glyph horiz-adv-x="476" d="M88 627l6 31q44 4 84 13t63 15.5t29 6.5q14 0 7 -30q-17 -74 -75 -333h2q101 124 183 124q35 0 56 -32t21 -84q0 -82 -39.5 -163t-100.5 -126q-84 -61 -168 -61q-62 0 -89 44q-23 38 -7 125q15 80 44.5 223t40.5 196q7 31 1.5 39.5t-31.5 9.5zM315 376h-1 q-20 0 -53.5 -29t-68.5 -85q-10 -33 -21 -103q-21 -119 39 -121q20 0 39 14q33 26 62.5 105.5t29.5 158.5q0 60 -26 60z" unicode="b" glyph-name="b"/>
<glyph horiz-adv-x="370" d="M326 128l17 -27q-100 -113 -200 -113q-52 0 -80.5 36t-28.5 106q0 67 26.5 135t76.5 114q33 30 81.5 52.5t82.5 22.5q36 0 59.5 -16.5t23.5 -39.5q0 -30 -37 -55q-23 -18 -36 2q-37 57 -70 57q-23 0 -45 -45q-39 -76 -39 -199q0 -94 54 -94q48 0 115 64z" unicode="c" glyph-name="c"/>
<glyph horiz-adv-x="502" d="M470 124l14 -27q-41 -49 -88 -79t-75 -30q-14 0 -21.5 7.5t-11 31.5t7.5 69l9 45h-3q-35 -49 -97 -105q-55 -48 -99 -48q-32 0 -53 32t-21 91q0 72 30.5 144.5t79.5 117.5q36 33 90.5 57t85.5 24q22 0 44 -5l26 132q5 26 -1.5 33.5t-32.5 9.5l-25 2l6 32q44 4 84 13 t62.5 15.5t27.5 6.5q15 0 8 -30q-51 -221 -110 -543q-7 -37 4 -37q6 0 24.5 12.5t34.5 28.5zM288 409h-1q-27 0 -46 -19q-39 -36 -61.5 -114t-22.5 -143q0 -25 6.5 -41t17.5 -16q26 0 68 49t66 98l34 164q-27 22 -61 22z" unicode="d" glyph-name="d"/>
<glyph horiz-adv-x="391" d="M351 135l18 -26q-112 -121 -221 -121q-115 0 -115 146q0 73 31.5 143.5t82.5 112.5q31 25 75 44.5t78 19.5q47 0 71 -24.5t24 -61.5q0 -113 -241 -178q-1 -8 -1 -25q0 -100 62 -100q66 0 136 70zM255 408h-1q-14 0 -30 -13q-17 -15 -37 -58t-29 -110q132 43 132 126 q0 28 -11 41.5t-24 13.5z" unicode="e" glyph-name="e"/>
<glyph horiz-adv-x="280" d="M73 436h53q24 110 83 172q34 36 80 60.5t83 24.5q32 0 51 -15.5t18 -35.5q-1 -30 -35 -55q-15 -10 -28 4q-39 49 -67 49q-11 1 -19.5 -9.5t-20.5 -57.5t-26 -137h105l-22 -40l-92 -8q-32 -176 -53 -274q-25 -113 -59 -177.5t-84 -110.5q-63 -59 -114 -59q-24 0 -42 12.5 t-18 29.5q1 31 32 56q13 12 24 5q15 -13 36 -23.5t33 -10.5q21 0 31 25q16 48 45 221q12 72 27.5 168.5t22.5 137.5h-75l-4 12z" unicode="f" glyph-name="f"/>
<glyph horiz-adv-x="415" d="M474 450l10 -22q-46 -47 -84 -54q-7 0 -11 -1q6 -19 6 -44q0 -88 -69 -144q-47 -39 -137 -62q-11 -6 -11 -18q0 -17 66 -52q70 -36 102 -67.5t32 -67.5q0 -62 -81.5 -106.5t-165.5 -44.5q-80 0 -128.5 32t-48.5 74q0 36 38 65t117 64q-36 25 -35 52q0 26 73 70 q-49 9 -72 40.5t-23 76.5q0 98 85 162q30 23 68 37t69 14q47 0 87 -28q77 4 113 24zM249 416h-1q-35 0 -60 -64q-23 -58 -23 -120q0 -67 36 -67q30 0 57 50.5t27 127.5q0 73 -36 73zM182 -187h1q38 0 65.5 16.5t27.5 42.5q0 32 -61 69q-38 25 -80 43q-65 -37 -65 -89 q0 -37 33 -59.5t79 -22.5z" unicode="g" glyph-name="g"/>
<glyph horiz-adv-x="503" d="M464 117l15 -28q-45 -48 -91.5 -74.5t-73.5 -26.5q-49 0 -23 116l46 207q14 57 -6 57q-24 0 -70 -47t-74 -98q-7 -32 -43 -213q-45 -4 -110 -22l-8 8q68 320 115 571q7 37 -0.5 47t-39.5 12l-17 1l8 31q48 4 107.5 19.5t64.5 15.5q17 0 10 -30l-77 -366h2q67 87 140 132 q41 25 74 25q68 0 36 -140l-41 -189q-10 -43 2 -43q16 0 54 35z" unicode="h" glyph-name="h"/>
<glyph horiz-adv-x="278" d="M219 649h1q26 0 40 -17t14 -40q0 -31 -19.5 -53.5t-50.5 -22.5q-25 0 -40 15.5t-15 40.5q0 31 19.5 54t50.5 23zM239 118l16 -24q-44 -51 -91.5 -78.5t-74.5 -27.5q-51 0 -28 97l55 241q7 32 -1 32q-11 0 -58 -35l-13 26q47 47 96.5 76t76.5 29q42 0 18 -101l-56 -236 q-9 -36 3 -36q15 0 57 37z" unicode="i" glyph-name="i"/>
<glyph horiz-adv-x="273" d="M216 649h1q25 0 39 -17t14 -41q0 -31 -20 -53.5t-51 -22.5q-25 0 -40 16t-15 41q0 31 20 54t52 23zM58 321l-14 26q43 45 95 76t82 31q21 0 24.5 -26t-7.5 -83q-9 -61 -54 -282q-18 -87 -50 -146t-89 -104q-68 -54 -107 -54q-18 0 -34 10t-15 27q0 13 11 31t24 28 q12 9 23 1q33 -29 55 -29q12 0 20 14t18 58q16 68 78 412q9 48 -1 48q-7 0 -27 -13t-32 -25z" unicode="j" glyph-name="j"/>
<glyph horiz-adv-x="465" d="M436 111l18 -25q-66 -98 -126 -98q-41 0 -68 70q-19 46 -55 173q-22 -25 -31 -43q-30 -156 -34 -178q-59 -9 -109 -22l-7 7q71 317 120 575q7 34 1.5 43.5t-33.5 11.5l-25 1l7 32q40 3 80.5 12t64.5 16t29 7q9 0 10.5 -7.5t-3.5 -27.5q-15 -67 -43.5 -200t-44.5 -204h2 q46 58 79 91q5 5 21 22t22.5 23t20.5 19t22.5 19t20.5 13t22.5 10t21.5 3q21 0 35 -11t14 -26q0 -28 -24 -54q-12 -11 -21 -7q-20 11 -45 11q-23 0 -47 -14.5t-40 -36.5q25 -101 57 -174q26 -66 41 -66q18 0 47 35z" unicode="k" glyph-name="k"/>
<glyph horiz-adv-x="260" d="M223 114l15 -26q-44 -48 -89 -74t-73 -26q-49 0 -24 122q15 76 45.5 228t46.5 228q7 37 0 47t-37 12l-20 2l7 31q39 3 78.5 12t64.5 16t30 7q15 0 7 -36q-36 -180 -110 -542q-7 -36 3 -36q17 0 56 35z" unicode="l" glyph-name="l"/>
<glyph horiz-adv-x="755" d="M715 119l14 -28q-44 -50 -90.5 -76.5t-74.5 -26.5q-51 0 -27 100l53 230q12 50 -4 50q-20 0 -71.5 -55.5t-72.5 -99.5q-6 -24 -44 -202q-55 -4 -112 -19l-7 8q18 69 70 296q16 73 -2 73q-22 0 -73.5 -57.5t-72.5 -102.5q-6 -23 -44 -198q-53 -4 -110 -19l-7 8 q38 150 75 318q8 36 -1 43q-16 0 -58 -38l-13 28q47 48 90 75.5t70 27.5q23 0 28 -26t-8 -88l-12 -53h2q34 46 75.5 86t70.5 58q41 23 66 23q62 0 33 -140l-5 -25h2q73 96 146 141q37 24 68 24q62 0 29 -149l-44 -192q-7 -33 3 -33q15 0 58 39z" unicode="m" glyph-name="m"/>
<glyph horiz-adv-x="518" d="M478 119l14 -27q-48 -51 -93 -77.5t-72 -26.5q-51 0 -28 95q38 166 52 223q12 51 -2 63q-21 0 -72 -56t-76 -106q-26 -101 -44 -196q-41 -2 -110 -19l-6 8q46 188 74 320q8 41 0 41q-16 0 -59 -39l-14 28q47 48 90.5 76t70.5 28q43 0 21 -108l-14 -63h2q69 95 142 143 q41 28 74 28q20 0 30.5 -11t14 -44t-11.5 -95q-42 -180 -43 -185q-9 -37 2 -37q15 0 58 37z" unicode="n" glyph-name="n"/>
<glyph horiz-adv-x="462" d="M305 454h1q67 0 101 -42t34 -115q0 -69 -27.5 -136t-77.5 -110q-74 -63 -161 -63q-75 0 -106.5 46.5t-31.5 112.5q0 91 39.5 161t99.5 106q67 40 129 40zM268 411h-1q-11 0 -21 -5q-29 -13 -57 -85.5t-28 -185.5q0 -50 15.5 -76.5t37.5 -26.5q10 0 22 4q30 12 56 88.5 t26 182.5q0 104 -50 104z" unicode="o" glyph-name="o"/>
<glyph horiz-adv-x="486" d="M264 522l-17 -80q46 12 86 12q137 0 137 -142q0 -115 -79 -209q-77 -90 -190 -115q-20 0 -44 9l-21 -113q-6 -34 0.5 -46t39.5 -16l25 -4l-6 -32l-256 -12l7 32q41 9 54 23t23 61q29 137 98 475q-29 -9 -70 -31l-10 31q35 23 90 47l11 43q17 18 50.5 40.5t61.5 34.5z M275 402h-1q-12 0 -38 -6l-64 -332q23 -31 46 -31q25 0 55 39t52 103.5t22 128.5q0 98 -72 98z" unicode="p" glyph-name="p"/>
<glyph horiz-adv-x="481" d="M296 125h-2q-36 -44 -80 -84q-61 -53 -109 -53q-34 0 -53.5 35t-19.5 90q0 72 29 140.5t79 114.5q29 27 73 48.5t77 29.5q36 8 61 8q23 0 102 -17l15 -3q-22 -78 -50 -234l-54 -307q-7 -44 -0.5 -57t32.5 -15l25 -3l-4 -31l-253 -13l6 32l20 5q26 6 37.5 20.5t19.5 52.5z M181 74h1q23 0 62 41t60 79q26 106 41 199q-19 13 -52 13q-30 0 -52 -19q-39 -37 -62 -110t-23 -140q0 -63 25 -63z" unicode="q" glyph-name="q"/>
<glyph horiz-adv-x="372" d="M206 292h3q81 162 134 162q28 0 46 -29q16 -30 -5 -63q-19 -26 -35 -38q-15 -12 -26 1q-20 18 -35 18q-14 0 -33 -28q-37 -54 -56 -119q-10 -40 -36 -185q-50 -3 -109 -19l-8 8q44 188 67 319q9 43 -2 43q-7 0 -25 -11.5t-32 -23.5l-15 25q42 45 85.5 73.5t69.5 28.5 q45 0 21 -116z" unicode="r" glyph-name="r"/>
<glyph horiz-adv-x="336" d="M243 454h1q36 0 59.5 -18.5t23.5 -41.5q0 -32 -32 -53q-19 -13 -29 1q-43 54 -81 54q-16 0 -26 -10t-10 -25q0 -35 64 -82q88 -64 88 -125q0 -66 -62.5 -116t-130.5 -50q-40 0 -71.5 21t-32.5 53q0 33 31 54q24 16 36 -1q49 -67 101 -67q18 0 30 9t12 26t-12 33.5 t-46 44.5q-29 24 -43 37t-30 39t-16 52q0 64 61 115q58 50 115 50z" unicode="s" glyph-name="s"/>
<glyph horiz-adv-x="304" d="M348 436l-29 -43l-83 -5l-55 -262q-11 -51 5 -51q9 0 33 16.5t43 34.5l15 -26q-30 -41 -82.5 -76.5t-91.5 -35.5q-28 0 -38 30.5t5 110.5l56 259h-67l-4 10l29 38h52l22 91l112 70l12 -8l-35 -153h101z" unicode="t" glyph-name="t"/>
<glyph horiz-adv-x="511" d="M474 123l16 -27q-44 -51 -88 -79.5t-74 -28.5q-46 0 -28 91q2 11 6.5 30.5t6.5 30.5h-2q-35 -47 -74 -82.5t-65 -49.5q-32 -20 -66 -20q-68 0 -37 138q15 70 46 200q7 32 -2 35q-13 0 -57 -35l-12 28q45 43 91.5 71.5t75.5 28.5q21 0 25.5 -21.5t-7.5 -81.5 q-7 -30 -24 -105.5t-26 -111.5q-13 -57 9 -57q26 0 71 49t65 89q30 130 46 211l104 28h14q-42 -169 -74 -334q-7 -38 2 -38q17 0 58 41z" unicode="u" glyph-name="u"/>
<glyph horiz-adv-x="446" d="M251 123h2q31 40 50 67t38.5 69.5t19.5 73.5t-16 58q-3 10 2 23q16 40 56 40q23 0 37.5 -17t15.5 -47q0 -48 -61 -134q-116 -165 -206 -268h-39q-8 197 -23 323q-8 53 -17 53q-14 0 -52 -43l-19 25q35 48 73.5 78t67.5 30q27 0 40 -28t18 -87q7 -89 13 -216z" unicode="v" glyph-name="v"/>
<glyph horiz-adv-x="648" d="M461 125h2q102 144 102 209q0 27 -16 56q-5 13 5 30q18 34 53 34q22 0 36 -18t14 -46q0 -36 -36 -99q-23 -36 -99.5 -143.5t-116.5 -159.5h-37q-4 46 -32 267h-2q-132 -227 -158 -267h-35q-9 258 -16 320q-6 54 -16 54q-16 0 -48 -39l-18 24q32 47 73 77t70 30 q45 0 49 -115q4 -111 0 -184h2q76 135 151 283h35q14 -108 38 -313z" unicode="w" glyph-name="w"/>
<glyph horiz-adv-x="454" d="M78 315l-21 23q36 54 71.5 85t63.5 31q23 -1 37 -24.5t28 -76.5l12 -44q54 83 85.5 113.5t60.5 31.5q22 0 35 -15.5t12 -39.5t-17.5 -42t-34.5 -18q-10 0 -18 13q-11 11 -23 11t-35 -24q-25 -28 -51 -69l35 -125q18 -68 36 -68q17 0 57 51l22 -21q-72 -119 -141 -119 q-46 0 -72 93l-21 81q-56 -100 -88 -137t-67 -37q-21 0 -35.5 15t-13.5 39q0 27 17 45.5t33 18.5q9 0 17 -10q10 -10 23 -10q32 0 102 118l-28 102q-15 58 -28 58q-15 0 -53 -49z" unicode="x" glyph-name="x"/>
<glyph horiz-adv-x="444" d="M260 100h2q32 51 49.5 81t35 73t17.5 76q-1 29 -14 53q-8 18 0 36q18 35 52 35q22 0 37 -17.5t15 -48.5q0 -49 -38 -113q-68 -114 -156 -244t-177 -232l-126 -32l-9 29q84 55 130.5 94.5t82.5 87.5q1 58 -7.5 160.5t-20.5 167.5q-10 53 -19 53q-13 0 -47 -47l-20 25 q33 53 68.5 85t66.5 32q51 0 63 -133q8 -78 15 -221z" unicode="y" glyph-name="y"/>
<glyph horiz-adv-x="398" d="M407 462l24 -22q-35 -45 -59 -72q-83 -93 -241 -252q28 3 71 -13q49 -17 75 -17q42 0 91 75l28 -19q-43 -92 -76.5 -127.5t-68.5 -35.5q-13 0 -30 5t-28.5 10t-35.5 17t-31 15q-43 20 -65 2q-12 -12 -23 -29q-8 -13 -16 -11q-11 4 -15 16t8 39t46 62q214 214 245 247 q-40 -5 -57 -4q-12 1 -38 2.5t-36 1.5q-25 0 -43 -9t-26.5 -20t-27.5 -39l-31 15q25 59 47 93q38 57 79 57q35 0 85 -10q62 -11 89 -11q28 0 60 34z" unicode="z" glyph-name="z"/>
<glyph horiz-adv-x="343" d="M380 710l-6 -33q-72 -12 -86 -88q-6 -33 -10 -92q-6 -79 -12 -113q-7 -41 -33.5 -71.5t-71.5 -39.5v-4q39 -9 54.5 -37t9.5 -68q-2 -25 -31 -119q-26 -86 -26 -117q0 -55 58 -63l-8 -33q-129 0 -130 99q0 48 30 148q22 92 23 99q1 19 1 35t-16 28t-49 14l8 33 q28 2 46.5 10.5t28 24.5t12.5 25t6 26q5 27 11 89q7 70 16 123q15 73 62 98.5t113 25.5z" unicode="{" glyph-name="braceleft"/>
<glyph horiz-adv-x="252" d="M180 -250h-76v1000h76v-1000z" unicode="|" glyph-name="bar"/>
<glyph horiz-adv-x="343" d="M306 286l-8 -30q-28 -2 -47 -11t-28.5 -25.5t-12.5 -25.5t-7 -26q-5 -27 -11 -89q-7 -70 -16 -123q-8 -39 -26 -65t-43.5 -38t-50 -16.5t-55.5 -4.5l5 33q72 11 85 80q8 45 12 100q6 86 11 113q8 41 35.5 71.5t71.5 39.5v4q-39 9 -54.5 39t-9.5 72q4 29 30 113 q25 92 25 117q2 55 -58 65l9 31q60 0 95.5 -25t34.5 -79q-1 -36 -29 -143q-22 -90 -23 -94q-2 -18 -2.5 -35t16 -31.5t51.5 -16.5z" unicode="}" glyph-name="braceright"/>
<glyph horiz-adv-x="546" d="M491 323l48 -26q-37 -112 -133 -112q-50 0 -116 40q-56 34 -88 34q-55 0 -90 -78l-44 33q47 106 138 106q49 0 108 -35q60 -38 98 -38q50 0 79 76z" unicode="~" glyph-name="asciitilde"/>
<glyph horiz-adv-x="196" unicode=" " glyph-name="uni00A0"/>
<glyph horiz-adv-x="248" d="M230 385v-1q0 -35 -21.5 -59t-53.5 -24q-28 0 -47 20.5t-19 52.5q0 37 23 60t53 23h1q28 0 46 -20.5t18 -51.5zM152 230q-3 -54 -10 -164.5t-10 -166.5q-2 -45 -6 -73q-7 -38 -81 -38h-1q-39 0 -53.5 12t-11.5 31q2 11 21 69q22 61 59.5 173.5t52.5 156.5q4 9 21 8.5 t19 -8.5z" unicode="¡" glyph-name="exclamdown"/>
<glyph d="M373 614l-15 -76q50 -2 84 -24q19 -13 19 -31q0 -19 -15.5 -34.5t-28.5 -14.5q-10 0 -17 11q-23 41 -51 49l-63 -329h10q57 2 113 51l18 -25q-68 -83 -155 -93l-19 -96h-37l19 95q-73 5 -118 51.5t-45 126.5q0 102 70.5 175.5t177.5 85.5l16 78h37zM250 172l63 326 q-52 -2 -88.5 -63.5t-36.5 -147.5q0 -47 16.5 -77t45.5 -38z" unicode="¢" glyph-name="cent"/>
<glyph d="M382 291h-134q-15 -104 -137 -171q37 1 98 -23q100 -39 128 -39q41 0 43 28q1 17 -3 39q-4 11 6 25q25 25 41 25q26 0 18 -52q-4 -27 -28.5 -59t-54.5 -54q-50 -37 -104 -37q-23 0 -44.5 8.5t-52 27.5t-36.5 22q-39 22 -57 22q-19 0 -40 -39q-9 -17 -19 -17 q-13 0 -19 12.5t2 32.5q5 12 17 26.5t33 37t26 27.5q53 60 58 158h-88l8 42h80q1 34 6 76q13 112 109 182q61 44 117 44t87 -36q14 -21 -2 -45q-15 -19 -29 -28q-19 -10 -32 2l-15.5 15.5t-16.5 16t-14 10.5t-17.5 9.5t-15.5 2.5q-39 0 -48 -62q-4 -34 -2 -187h139z" unicode="£" glyph-name="sterling"/>
<glyph d="M466 140l-46 -48l-69 77q-40 -33 -99 -33q-58 0 -98 33l-70 -77l-45 48l75 70q-39 47 -39 116q0 70 39 114l-75 70l45 49l70 -78q41 34 98 34h2q57 0 97 -34l69 78l46 -49l-75 -70q39 -44 39 -114q0 -69 -39 -116zM254 451h-1q-43 0 -71.5 -36t-28.5 -89q0 -55 28 -90.5 t73 -35.5q44 0 71.5 35.5t27.5 90.5q0 54 -27.5 89.5t-71.5 35.5z" unicode="¤" glyph-name="currency"/>
<glyph d="M541 623l-7 -31q-34 -5 -49.5 -16.5t-44.5 -52.5q-47 -65 -123 -189h115l-9 -40h-120l-16 -81h122l-8 -40h-122l-10 -52q-11 -55 -0.5 -70.5t63.5 -19.5l-7 -31h-265l7 31q48 4 62.5 19.5t25.5 69.5l11 53h-126l8 40h125l15 81h-125l9 40h113q-11 74 -38 190 q-8 39 -20 51.5t-47 16.5l7 31h219l-7 -31l-22 -5q-24 -5 -20 -35q10 -60 33 -193q79 131 104 184q12 23 8.5 33t-25.5 13l-21 3l7 31h178z" unicode="¥" glyph-name="yen"/>
<glyph horiz-adv-x="252" d="M180 325h-76v350h76v-350zM180 -175h-76v350h76v-350z" unicode="¦" glyph-name="brokenbar"/>
<glyph horiz-adv-x="470" d="M431 218v-1q0 -124 -136 -245q-76 -67 -158 -84q-45 0 -72 24q-20 16 -15 37q1 10 12 24t22 20t23 -3q42 -35 84 -35q26 0 44 14.5t18 36.5q0 35 -49 92q-40 46 -83 102q-51 61 -51 133q0 107 113 208q86 76 169 92q49 0 76 -29q9 -10 7 -25q-1 -12 -10.5 -25.5 t-17.5 -18.5q-10 -6 -18 0q-45 39 -87 39q-25 0 -40 -15t-16 -35q-1 -26 24 -57q9 -10 39 -43t41 -44q43 -45 62 -82.5t19 -79.5zM186 496h-2q-44 -43 -44 -111v-1q0 -61 59 -129l34 -38q53 -61 69 -100q15 -34 9 -82l2 -1q49 55 49 123q0 55 -58 125q-39 46 -89 109 q-40 50 -29 105z" unicode="§" glyph-name="section"/>
<glyph horiz-adv-x="400" d="M192 631h1q24 0 37.5 -16t13.5 -38q0 -30 -18.5 -51t-48.5 -21q-23 0 -37.5 14.5t-14.5 38.5q0 30 18.5 51.5t48.5 21.5zM375 631h1q24 0 37.5 -16t13.5 -38q0 -30 -18.5 -51t-48.5 -21q-23 0 -37.5 14.5t-14.5 38.5q0 30 18.5 51.5t48.5 21.5z" unicode="¨" glyph-name="dieresis"/>
<glyph horiz-adv-x="699" d="M388 627h1q127 0 215.5 -89.5t88.5 -217.5q0 -126 -88.5 -215t-216.5 -89q-131 0 -217.5 88.5t-86.5 215.5t88 217t216 90zM390 589h-1q-110 0 -181.5 -76.5t-71.5 -191.5t72 -191t182 -76q109 0 180 76t71 191t-71 191.5t-180 76.5zM520 257l22 -5q-17 -71 -25 -86 q-60 -20 -109 -20q-92 0 -141.5 51t-49.5 120q0 81 57.5 129.5t139.5 48.5q48 0 107 -17q3 -42 11 -94l-22 -4q-30 85 -98 85q-49 0 -78 -38.5t-29 -101.5q0 -65 31 -106.5t76 -41.5q71 0 108 80z" unicode="©" glyph-name="copyright"/>
<glyph horiz-adv-x="341" d="M348 353l10 -18q-28 -27 -60.5 -45.5t-51.5 -18.5q-29 0 -18 54l9 43h-2q-21 -29 -54 -60q-42 -37 -71 -37q-19 0 -32 18t-13 56q0 94 63 157q23 24 60 40t77 16h1q14 0 36 -5q7 -2 47 -4q-23 -101 -38 -189q-4 -27 1 -27q10 0 36 20zM233 524h-1q-12 0 -24 -8 q-20 -14 -36 -50q-22 -53 -22 -103q0 -29 13 -29q12 0 35 26q30 31 44 66q9 20 24 90q-12 8 -33 8z" unicode="ª" glyph-name="ordfeminine"/>
<glyph horiz-adv-x="439" d="M247 397l-94 -170l54 -171l-31 -15q-68 114 -124 186q76 73 168 187zM410 397l-94 -170l55 -171l-32 -15q-68 114 -124 186q84 81 168 187z" unicode="«" glyph-name="guillemotleft"/>
<glyph horiz-adv-x="597" d="M560 101h-73v211h-412v63h485v-274z" unicode="¬" glyph-name="logicalnot"/>
<glyph horiz-adv-x="298" d="M272 266l-20 -70h-218l20 70h218z" unicode="­" glyph-name="uni00AD"/>
<glyph horiz-adv-x="306" d="M212 660h1q54 0 90 -37t36 -89q0 -51 -36.5 -88t-90.5 -37q-55 0 -90.5 36t-35.5 89q0 52 36.5 89t89.5 37zM212 639h-1q-43 0 -71 -30t-28 -75q0 -44 29 -74t71 -30q43 0 72 30t29 74t-29 74.5t-72 30.5zM281 476l-1 -10q-32 0 -47 21q-5 7 -11.5 18.5t-7.5 12.5 q-4 7 -12 7h-6v-26q0 -13 3 -15.5t16 -3.5v-13h-64v13q14 1 16.5 3.5t2.5 15.5v72q0 13 -2.5 16t-15.5 4v12h64q48 0 48 -36q0 -24 -28 -35q11 -20 32 -47q10 -8 13 -9zM196 578v-40h11q12 0 17 3q12 6 12 24q0 25 -27 25q-13 0 -13 -12z" unicode="®" glyph-name="registered"/>
<glyph horiz-adv-x="400" d="M380 588l-16 -67h-221l16 67h221z" unicode="¯" glyph-name="macron"/>
<glyph horiz-adv-x="343" d="M246 655h1q52 0 87 -32.5t35 -90.5q0 -61 -41.5 -104.5t-107.5 -43.5q-55 0 -88.5 33t-33.5 88q0 63 42.5 106.5t105.5 43.5zM243 607h-1q-36 0 -58 -30t-22 -71q0 -31 17 -52.5t47 -21.5q37 0 58.5 29.5t21.5 67.5t-17 58t-46 20z" unicode="°" glyph-name="degree"/>
<glyph horiz-adv-x="597" d="M553 305h-205v-194h-73v194h-206v63h206v181h73v-181h205v-63zM553 0h-484v64h484v-64z" unicode="±" glyph-name="plusminus"/>
<glyph horiz-adv-x="318" d="M327 494l24 -10q-12 -26 -39 -94h-237l5 21q87 73 106 91q73 69 74 127q0 54 -50 54q-35 0 -70 -42l-20 19l41 48q39 39 94 39q43 0 71.5 -27t27.5 -72q0 -11 -2.5 -22t-8.5 -22t-10.5 -19t-15 -18.5t-16 -16.5t-19 -17t-18 -15t-19.5 -15t-18 -13l-40 -31v-2h82 q21 0 30.5 6t27.5 31z" unicode="²" glyph-name="two.superior"/>
<glyph horiz-adv-x="318" d="M273 602v-2q31 -7 52 -27t21 -51q0 -70 -93 -115q-51 -23 -90 -23q-45 0 -70 23q-16 16 -7 33q6 17 21 26q14 10 26 -2q40 -40 70 -40q20 0 34 18t14 49q0 34 -18 51t-47 17q-13 0 -29 -4l-5 26q98 26 98 79q0 35 -36 35q-29 0 -65 -40l-19 18l36 41q33 33 86 33h1 q37 0 64.5 -19t27.5 -53q0 -23 -17 -40t-55 -33z" unicode="³" glyph-name="three.superior"/>
<glyph horiz-adv-x="400" d="M415 662l-172 -175l-29 17q50 93 83 165q17 5 55 8.5t58 0.5z" unicode="´" glyph-name="acute"/>
<glyph horiz-adv-x="505" d="M465 123l16 -27q-44 -51 -88 -79.5t-74 -28.5q-43 0 -27 91q8 34 13 63h-3q-54 -84 -102 -126q-35 -28 -63 -28q-21 0 -32.5 13.5t-15.5 45.5h-3q-21 -67 -12 -143q6 -56 35 -105v-10q-7 -10 -26 -19.5t-40 -9.5q-20 0 -31.5 18.5t-10.5 52.5q1 27 34 186q17 81 37 173 t32.5 148.5t18.5 88.5l113 24l6 -5q-49 -210 -68 -304q-15 -66 13 -66q26 0 68 53t63 96q20 81 44 201l104 28h13q-40 -168 -73 -335q-8 -38 2 -38q15 0 57 42z" unicode="µ" glyph-name="mu"/>
<glyph horiz-adv-x="467" d="M500 541l-31 -27l-71 -10l-90 -474q-24 -124 -90 -183q-28 -26 -58 -40.5t-47 -14.5q-39 0 -65 26q-16 18 -6 37t27 30q8 7 19 -2q33 -25 71 -25q30 0 49.5 30.5t38.5 125.5l26 127l-56 -23q-9 -5 -20 -5q-53 0 -93 53.5t-40 127.5q0 108 77.5 183.5t186.5 75.5h168z" unicode="¶" glyph-name="paragraph"/>
<glyph horiz-adv-x="239" d="M131 151h-1q-27 0 -44.5 20t-17.5 50q0 35 21 59t53 24q28 0 46 -20.5t18 -51.5q0 -37 -22.5 -59t-52.5 -22z" unicode="·" glyph-name="periodcentered"/>
<glyph horiz-adv-x="400" d="M221 3l-21 -26q-15 -19 1 -41q27 -41 26 -67q-1 -31 -34.5 -59.5t-88.5 -45.5l-13 30q60 31 61 57q0 16 -15 37q-26 35 0 67l40 48h44z" unicode="¸" glyph-name="cedilla"/>
<glyph horiz-adv-x="318" d="M310 417l-6 -27h-196l6 26q33 4 43 14t18 46l33 163q6 32 2.5 40t-25.5 11l-20 2l6 26q67 8 148 29l-54 -271q-7 -36 1.5 -46t43.5 -13z" unicode="¹" glyph-name="one.superior"/>
<glyph horiz-adv-x="320" d="M235 558h1q48 0 75.5 -27.5t27.5 -79.5q0 -92 -67 -143q-44 -37 -99 -37q-49 0 -75 29.5t-26 77.5q0 50 23.5 92t59.5 64q39 24 80 24zM223 526h-1q-8 0 -19 -7q-16 -10 -31.5 -49t-15.5 -99q0 -67 35 -67q10 0 21 7q15 10 30 54.5t15 100.5q0 60 -34 60z" unicode="º" glyph-name="ordmasculine"/>
<glyph horiz-adv-x="439" d="M88 400l31 15q69 -115 125 -186q-81 -78 -169 -187l-27 17l94 170zM251 400l32 15q64 -108 124 -186q-81 -78 -169 -187l-26 17l93 170z" unicode="»" glyph-name="guillemotright"/>
<glyph horiz-adv-x="757" d="M642 621l-483 -661l-32 28l482 660zM277 305l-6 -27h-196l6 26q33 4 43 14t17 46l34 164q6 32 2 40t-25 11l-20 2l6 25q67 8 148 29l-54 -271q-7 -37 1 -46.5t44 -12.5zM658 133l-8 -38h-47l-4 -22q-5 -26 2 -34.5t36 -12.5l-6 -26h-185l8 26q32 4 42 11t15 32l5 26h-145 l5 25q120 144 217 237h60l-43 -224h48zM555 275h-3q-82 -96 -117 -142h88z" unicode="¼" glyph-name="onequarter"/>
<glyph horiz-adv-x="735" d="M631 621l-483 -661l-31 28l480 660zM272 306l-6 -28h-196l6 27q33 4 43.5 13.5t17.5 45.5l33 163q6 32 2.5 40t-25.5 11l-20 2l6 26q67 8 148 29l-54 -271q-7 -35 1.5 -45t43.5 -13zM650 104l23 -10q-9 -21 -38 -94h-237l4 21q71 57 107 91q73 71 74 127q0 55 -50 55 q-36 0 -70 -43l-19 20l40 48q38 39 94 39q43 0 71 -27t28 -72q0 -15 -3.5 -28t-13.5 -27.5t-15.5 -23t-23.5 -23.5t-22 -19t-26 -20.5t-23 -17.5l-40 -31v-2h81q21 0 30.5 6t28.5 31z" unicode="½" glyph-name="onehalf"/>
<glyph horiz-adv-x="735" d="M653 621l-483 -661l-32 28l481 660zM141 543l-18 18l35 41q33 33 86 33h1q37 0 64.5 -19t27.5 -53q0 -23 -17 -40t-55 -33v-2q31 -7 52 -27t21 -51q0 -74 -91 -115q-49 -23 -92 -23q-47 0 -69 22q-17 15 -8 33q6 17 21 26q13 10 26 -3q42 -38 70 -38q20 0 34 18t14 49 q0 34 -18 51t-47 17q-13 0 -29 -4l-5 26q98 26 98 79q0 35 -36 35q-29 0 -65 -40zM661 133l-8 -38h-48l-4 -22q-5 -26 2 -34.5t36 -12.5l-6 -26h-184l7 26q32 4 42 11t15 32l5 26h-145l5 25q125 150 217 237h61l-44 -224h49zM557 276h-3q-81 -95 -116 -143h87z" unicode="¾" glyph-name="threequarters"/>
<glyph horiz-adv-x="356" d="M236 457h1q28 0 45.5 -20.5t17.5 -51.5q0 -36 -21 -60t-54 -24q-28 0 -46.5 20.5t-18.5 52.5q0 37 23 60t53 23zM169 230l23 21q36 -17 65 -49t29 -73q0 -23 -9.5 -42t-29 -36.5t-34.5 -27.5t-43 -26q-7 -4 -20.5 -11.5t-20.5 -11.5t-18.5 -10.5t-18 -11t-15 -10.5 t-13.5 -10.5t-9.5 -9.5t-6.5 -9.5t-2 -9.5q0 -12 10.5 -20t27.5 -8q33 0 62 13.5t47 26.5t24 13q13 0 27.5 -19.5t14.5 -42.5t-29 -43q-51 -34 -98 -34h-1q-58 0 -100 46t-42 109q0 80 80 127l32.5 19.5t33.5 21t25.5 19t21 22.5t6.5 23q0 28 -19 54z" unicode="¿" glyph-name="questiondown"/>
<glyph horiz-adv-x="607" d="M566 31l-8 -31h-250l8 31q37 4 47 16t7 42q-2 26 -7 69t-6 49h-166q-35 -74 -52 -113q-15 -31 -6 -44t57 -19l-7 -31h-205l7 31q41 5 61 22.5t53 78.5l275 510l45 12l18 -139q8 -65 26.5 -197t27.5 -201q8 -52 20 -67t55 -19zM352 254l-25 220h-2q-10 -20 -49.5 -97.5 t-61.5 -122.5h138zM451 704l-14 -29l-199 59l-3 11q4 18 20.5 43t30.5 32q123 -85 165 -116z" unicode="À" glyph-name="Agrave"/>
<glyph horiz-adv-x="607" d="M566 31l-8 -31h-250l8 31q37 4 47 16t7 42q-2 26 -7 69t-6 49h-166q-35 -74 -52 -113q-15 -31 -6 -44t57 -19l-7 -31h-205l7 31q41 5 61 22.5t53 78.5l275 510l45 12l18 -139q8 -65 26.5 -197t27.5 -201q8 -52 20 -67t55 -19zM352 254l-25 220h-2q-10 -20 -49.5 -97.5 t-61.5 -122.5h138zM558 745l-4 -12l-198 -59l-15 29q30 20 86 60t78 55q14 -4 32 -29.5t21 -43.5z" unicode="Á" glyph-name="Aacute"/>
<glyph horiz-adv-x="607" d="M566 31l-8 -31h-250l8 31q37 4 47 16t7 42q-2 26 -7 69t-6 49h-166q-35 -74 -52 -113q-15 -31 -6 -44t57 -19l-7 -31h-205l7 31q41 5 61 22.5t53 78.5l275 510l45 12l18 -139q8 -65 26.5 -197t27.5 -201q8 -52 20 -67t55 -19zM352 254l-25 220h-2q-10 -20 -49.5 -97.5 t-61.5 -122.5h138zM543 697l-22 -27q-79 37 -113 57q-76 -35 -133 -57l-16 27q67 46 146 119h28q60 -72 110 -119z" unicode="Â" glyph-name="Acircumflex"/>
<glyph horiz-adv-x="607" d="M566 31l-8 -31h-250l8 31q37 4 47 16t7 42q-2 26 -7 69t-6 49h-166q-35 -74 -52 -113q-15 -31 -6 -44t57 -19l-7 -31h-205l7 31q41 5 61 22.5t53 78.5l275 510l45 12l18 -139q8 -65 26.5 -197t27.5 -201q8 -52 20 -67t55 -19zM352 254l-25 220h-2q-10 -20 -49.5 -97.5 t-61.5 -122.5h138zM513 794l27 -16q-30 -94 -84 -94q-21 0 -65 21q-32 16 -50 16q-26 0 -47 -46l-28 19q28 96 85 96q20 0 61 -20q37 -17 54 -17q23 0 47 41z" unicode="Ã" glyph-name="Atilde"/>
<glyph horiz-adv-x="607" d="M566 31l-8 -31h-250l8 31q37 4 47 16t7 42q-2 26 -7 69t-6 49h-166q-35 -74 -52 -113q-15 -31 -6 -44t57 -19l-7 -31h-205l7 31q41 5 61 22.5t53 78.5l275 510l45 12l18 -139q8 -65 26.5 -197t27.5 -201q8 -52 20 -67t55 -19zM352 254l-25 220h-2q-10 -20 -49.5 -97.5 t-61.5 -122.5h138zM318 811h1q24 0 37.5 -16t13.5 -38q0 -30 -18.5 -51t-48.5 -21q-23 0 -37.5 14.5t-14.5 38.5q0 30 18.5 51.5t48.5 21.5zM510 811h1q24 0 37.5 -16t13.5 -38q0 -30 -18.5 -51t-48.5 -21q-23 0 -37.5 14.5t-14.5 38.5q0 30 18.5 51.5t48.5 21.5z" unicode="Ä" glyph-name="Adieresis"/>
<glyph horiz-adv-x="607" d="M566 31l-8 -31h-250l8 31q37 4 47 16t7 42q-2 26 -7 69t-6 49h-166q-35 -74 -52 -113q-15 -31 -6 -44t57 -19l-7 -31h-205l7 31q41 5 61 22.5t53 78.5l275 510l45 12l18 -139q8 -65 26.5 -197t27.5 -201q8 -52 20 -67t55 -19zM352 254l-25 220h-2q-10 -20 -49.5 -97.5 t-61.5 -122.5h138zM499 772v-1q-1 -40 -30 -66t-69 -26q-36 0 -59.5 22t-22.5 57q1 42 29.5 69t69.5 27q36 0 59.5 -23t22.5 -59zM449 771v1q0 18 -9 31t-26 13q-21 0 -33 -16.5t-12 -39.5q0 -18 9 -30.5t26 -12.5q20 0 32.5 15.5t12.5 38.5z" unicode="Å" glyph-name="Aring"/>
<glyph horiz-adv-x="799" d="M787 491l-34 -2q-3 61 -17 85q-11 16 -28 22.5t-56 6.5h-49q-22 0 -28.5 -7t-10.5 -30l-43 -235h67q57 0 74 11.5t37 60.5h31l-37 -193h-32q1 52 -11 64t-70 12h-69l-27 -148q-12 -66 3 -83q16 -16 82 -16q73 0 107 33q27 25 63 93l33 -12q-40 -118 -58 -153h-452l6 32 q50 5 65 20t26 71l32 163h-152q-84 -135 -110 -184q-18 -34 -15 -47.5t30 -17.5l29 -6l-7 -31h-215l7 31q42 6 61.5 19.5t49.5 58.5q152 227 291 448q18 29 13.5 37.5t-38.5 11.5l-53 6l9 30h516q-8 -44 -20 -151zM266 331h135l53 267q-14 -2 -29 -15q-121 -188 -159 -252z " unicode="Æ" glyph-name="AE"/>
<glyph horiz-adv-x="573" d="M263 -49l31 37q-108 7 -170.5 75.5t-62.5 189.5q0 176 111.5 289t275.5 113q82 0 148 -25q-2 -42 -12 -157l-33 -3q-10 80 -38.5 112.5t-84.5 32.5q-90 0 -160 -108.5t-70 -260.5q0 -103 34 -160.5t94 -57.5q50 0 92.5 36t94.5 108l29 -15q-25 -69 -70 -147 q-73 -20 -136 -22l-12 -14q-9 -12 -8.5 -20t10.5 -22q26 -39 26 -67q-1 -32 -34 -60.5t-88 -45.5l-14 29q62 30 63 59q0 16 -15 37q-27 36 -1 67z" unicode="Ç" glyph-name="Ccedilla"/>
<glyph horiz-adv-x="535" d="M120 642h424q-15 -115 -19 -149l-32 -2q-2 63 -16 85q-8 16 -24.5 21.5t-54.5 5.5h-53q-23 0 -30 -6.5t-11 -29.5l-41 -209h67q56 0 71.5 11t36.5 64h33l-40 -202h-33q1 55 -11 68t-68 13h-65l-33 -175q-12 -68 2 -82q15 -16 81 -16q74 0 109 34q31 30 66 90l32 -12 q-32 -93 -59 -151h-455l7 31q52 5 65.5 18.5t25.5 75.5l77 395q11 58 1 72t-62 19zM421 705l-14 -29l-199 59l-3 11q4 18 20.5 43t30.5 32q123 -85 165 -116z" unicode="È" glyph-name="Egrave"/>
<glyph horiz-adv-x="535" d="M120 642h424q-15 -115 -19 -149l-32 -2q-2 63 -16 85q-8 16 -24.5 21.5t-54.5 5.5h-53q-23 0 -30 -6.5t-11 -29.5l-41 -209h67q56 0 71.5 11t36.5 64h33l-40 -202h-33q1 55 -11 68t-68 13h-65l-33 -175q-12 -68 2 -82q15 -16 81 -16q74 0 109 34q31 30 66 90l32 -12 q-32 -93 -59 -151h-455l7 31q52 5 65.5 18.5t25.5 75.5l77 395q11 58 1 72t-62 19zM518 746l-4 -12l-198 -59l-15 29q30 20 86 60t78 55q14 -4 32 -29.5t21 -43.5z" unicode="É" glyph-name="Eacute"/>
<glyph horiz-adv-x="535" d="M120 642h424q-15 -115 -19 -149l-32 -2q-2 63 -16 85q-8 16 -24.5 21.5t-54.5 5.5h-53q-23 0 -30 -6.5t-11 -29.5l-41 -209h67q56 0 71.5 11t36.5 64h33l-40 -202h-33q1 55 -11 68t-68 13h-65l-33 -175q-12 -68 2 -82q15 -16 81 -16q74 0 109 34q31 30 66 90l32 -12 q-32 -93 -59 -151h-455l7 31q52 5 65.5 18.5t25.5 75.5l77 395q11 58 1 72t-62 19zM507 701l-22 -27q-79 37 -113 57q-76 -35 -133 -57l-16 27q67 46 146 119h28q60 -72 110 -119z" unicode="Ê" glyph-name="Ecircumflex"/>
<glyph horiz-adv-x="535" d="M120 642h424q-15 -115 -19 -149l-32 -2q-2 63 -16 85q-8 16 -24.5 21.5t-54.5 5.5h-53q-23 0 -30 -6.5t-11 -29.5l-41 -209h67q56 0 71.5 11t36.5 64h33l-40 -202h-33q1 55 -11 68t-68 13h-65l-33 -175q-12 -68 2 -82q15 -16 81 -16q74 0 109 34q31 30 66 90l32 -12 q-32 -93 -59 -151h-455l7 31q52 5 65.5 18.5t25.5 75.5l77 395q11 58 1 72t-62 19zM282 811h1q24 0 37.5 -16t13.5 -38q0 -30 -18.5 -51t-48.5 -21q-23 0 -37.5 14.5t-14.5 38.5q0 30 18.5 51.5t48.5 21.5zM474 811h1q24 0 37.5 -16t13.5 -38q0 -30 -18.5 -51t-48.5 -21 q-23 0 -37.5 14.5t-14.5 38.5q0 30 18.5 51.5t48.5 21.5z" unicode="Ë" glyph-name="Edieresis"/>
<glyph horiz-adv-x="338" d="M389 642l-8 -31q-49 -4 -62 -18.5t-24 -73.5l-77 -397q-10 -56 0 -71t62 -20l-7 -31h-272l7 31q48 4 62 19t25 72l77 397q12 59 2 73t-64 19l7 31h272zM322 704l-14 -29l-199 59l-3 11q4 18 20.5 43t30.5 32q123 -85 165 -116z" unicode="Ì" glyph-name="Igrave"/>
<glyph horiz-adv-x="338" d="M389 642l-8 -31q-49 -4 -62 -18.5t-24 -73.5l-77 -397q-10 -56 0 -71t62 -20l-7 -31h-272l7 31q48 4 62 19t25 72l77 397q12 59 2 73t-64 19l7 31h272zM413 745l-4 -12l-198 -59l-15 29q30 20 86 60t78 55q14 -4 32 -29.5t21 -43.5z" unicode="Í" glyph-name="Iacute"/>
<glyph horiz-adv-x="338" d="M389 642l-8 -31q-49 -4 -62 -18.5t-24 -73.5l-77 -397q-10 -56 0 -71t62 -20l-7 -31h-272l7 31q48 4 62 19t25 72l77 397q12 59 2 73t-64 19l7 31h272zM402 701l-22 -27q-79 37 -113 57q-76 -35 -133 -57l-16 27q67 46 146 119h28q60 -72 110 -119z" unicode="Î" glyph-name="Icircumflex"/>
<glyph horiz-adv-x="338" d="M389 642l-8 -31q-49 -4 -62 -18.5t-24 -73.5l-77 -397q-10 -56 0 -71t62 -20l-7 -31h-272l7 31q48 4 62 19t25 72l77 397q12 59 2 73t-64 19l7 31h272zM183 811h1q24 0 37.5 -16t13.5 -38q0 -30 -18.5 -51t-48.5 -21q-23 0 -37.5 14.5t-14.5 38.5q0 30 18.5 51.5 t48.5 21.5zM375 811h1q24 0 37.5 -16t13.5 -38q0 -30 -18.5 -51t-48.5 -21q-23 0 -37.5 14.5t-14.5 38.5q0 30 18.5 51.5t48.5 21.5z" unicode="Ï" glyph-name="Idieresis"/>
<glyph horiz-adv-x="662" d="M128 642h230q145 0 220 -66t75 -195q0 -94 -40.5 -177.5t-112.5 -130.5q-108 -73 -278 -73h-216l8 33q50 4 64 17.5t24 63.5l39 199h-92l11 47h90l32 163q10 56 1 68.5t-63 17.5zM262 313l-35 -186q-9 -51 3 -67q10 -19 46 -19q100 0 171 104.5t71 249.5q0 107 -44 158 t-109 50q-26 0 -39 -8q-12 -8 -20 -55l-35 -180h122l-11 -47h-120z" unicode="Ð" glyph-name="Eth"/>
<glyph horiz-adv-x="629" d="M699 642l-8 -31q-41 -3 -56 -15.5t-23 -43.5q-18 -65 -37 -164l-76 -398h-49l-236 498h-3l-45 -236q-18 -96 -23 -159q-2 -32 14 -45t65 -17l-7 -31h-221l8 31q34 3 51.5 16t27.5 43q16 54 40 167l47 230q12 55 -5 89q-9 17 -24.5 24.5t-46.5 10.5l8 31h169l221 -443h3 l35 188q19 110 23 160q3 35 -12 47.5t-67 16.5l7 31h220zM525 789l27 -16q-30 -94 -84 -94q-21 0 -65 21q-32 16 -50 16q-26 0 -47 -46l-28 19q28 96 85 96q20 0 61 -20q37 -17 54 -17q23 0 47 41z" unicode="Ñ" glyph-name="Ntilde"/>
<glyph horiz-adv-x="633" d="M396 655h1q109 0 169 -72t60 -192q0 -107 -41.5 -199t-119 -148.5t-174.5 -56.5q-106 0 -168.5 70t-62.5 186q0 171 97.5 291.5t238.5 120.5zM392 616h-1q-76 0 -136 -124t-60 -281q0 -83 25 -134t77 -51q55 0 101 66t69.5 158.5t23.5 182.5q0 183 -99 183zM481 710 l-14 -29l-199 59l-3 11q4 18 20.5 43t30.5 32q123 -86 165 -116z" unicode="Ò" glyph-name="Ograve"/>
<glyph horiz-adv-x="633" d="M396 655h1q109 0 169 -72t60 -192q0 -107 -41.5 -199t-119 -148.5t-174.5 -56.5q-106 0 -168.5 70t-62.5 186q0 171 97.5 291.5t238.5 120.5zM392 616h-1q-76 0 -136 -124t-60 -281q0 -83 25 -134t77 -51q55 0 101 66t69.5 158.5t23.5 182.5q0 183 -99 183zM543 751 l-4 -12l-198 -59l-15 29q30 20 86 60t78 55q14 -4 32 -29.5t21 -43.5z" unicode="Ó" glyph-name="Oacute"/>
<glyph horiz-adv-x="633" d="M396 655h1q109 0 169 -72t60 -192q0 -107 -41.5 -199t-119 -148.5t-174.5 -56.5q-106 0 -168.5 70t-62.5 186q0 171 97.5 291.5t238.5 120.5zM392 616h-1q-76 0 -136 -124t-60 -281q0 -83 25 -134t77 -51q55 0 101 66t69.5 158.5t23.5 182.5q0 183 -99 183zM544 706 l-22 -27q-79 37 -113 57q-76 -35 -133 -57l-16 27q67 46 146 119h28q60 -72 110 -119z" unicode="Ô" glyph-name="Ocircumflex"/>
<glyph horiz-adv-x="633" d="M396 655h1q109 0 169 -72t60 -192q0 -107 -41.5 -199t-119 -148.5t-174.5 -56.5q-106 0 -168.5 70t-62.5 186q0 171 97.5 291.5t238.5 120.5zM392 616h-1q-76 0 -136 -124t-60 -281q0 -83 25 -134t77 -51q55 0 101 66t69.5 158.5t23.5 182.5q0 183 -99 183zM512 803 l27 -16q-30 -94 -84 -94q-21 0 -65 21q-32 16 -50 16q-26 0 -47 -46l-28 19q28 96 85 96q20 0 61 -20q37 -17 54 -17q23 0 47 41z" unicode="Õ" glyph-name="Otilde"/>
<glyph horiz-adv-x="633" d="M396 655h1q109 0 169 -72t60 -192q0 -107 -41.5 -199t-119 -148.5t-174.5 -56.5q-106 0 -168.5 70t-62.5 186q0 171 97.5 291.5t238.5 120.5zM392 616h-1q-76 0 -136 -124t-60 -281q0 -83 25 -134t77 -51q55 0 101 66t69.5 158.5t23.5 182.5q0 183 -99 183zM324 817h1 q24 0 37.5 -16t13.5 -38q0 -30 -18.5 -51t-48.5 -21q-23 0 -37.5 14.5t-14.5 38.5q0 30 18.5 51.5t48.5 21.5zM516 817h1q24 0 37.5 -16t13.5 -38q0 -30 -18.5 -51t-48.5 -21q-23 0 -37.5 14.5t-14.5 38.5q0 30 18.5 51.5t48.5 21.5z" unicode="Ö" glyph-name="Odieresis"/>
<glyph horiz-adv-x="597" d="M550 58l-48 -49l-183 188l-183 -188l-47 49l182 187l-182 186l47 49l183 -186l183 188l48 -48l-183 -189z" unicode="×" glyph-name="multiply"/>
<glyph horiz-adv-x="631" d="M581 687l33 -24l-54 -75q65 -76 65 -195q0 -108 -41 -200.5t-118.5 -149t-175.5 -56.5q-81 0 -135 42l-54 -72l-29 26l53 72q-31 33 -48.5 84.5t-17.5 105.5q0 171 98 290.5t239 119.5q77 0 133 -41zM199 151l274 390q-18 75 -84 75q-51 0 -97 -56.5t-73.5 -147 t-27.5 -185.5q0 -38 8 -76zM487 491l-273 -388q23 -76 85 -76q54 0 100 63t70.5 152t23.5 174q0 41 -6 75z" unicode="Ø" glyph-name="Oslash"/>
<glyph horiz-adv-x="628" d="M704 642l-8 -31q-40 -2 -56 -15.5t-26 -47.5q-13 -42 -35 -149l-22 -111q-33 -167 -100 -236q-63 -65 -164 -65q-96 0 -147 54q-65 66 -35 226l48 249q11 60 1 75t-61 20l8 31h267l-7 -31q-47 -5 -59.5 -20t-24.5 -75l-49 -254q-22 -113 7.5 -161t91.5 -48q69 0 111.5 60 t65.5 181l20 105q19 102 22 150q3 32 -14 45t-65 17l8 31h223zM487 704l-14 -29l-199 59l-3 11q4 18 20.5 43t30.5 32q123 -85 165 -116z" unicode="Ù" glyph-name="Ugrave"/>
<glyph horiz-adv-x="628" d="M704 642l-8 -31q-40 -2 -56 -15.5t-26 -47.5q-13 -42 -35 -149l-22 -111q-33 -167 -100 -236q-63 -65 -164 -65q-96 0 -147 54q-65 66 -35 226l48 249q11 60 1 75t-61 20l8 31h267l-7 -31q-47 -5 -59.5 -20t-24.5 -75l-49 -254q-22 -113 7.5 -161t91.5 -48q69 0 111.5 60 t65.5 181l20 105q19 102 22 150q3 32 -14 45t-65 17l8 31h223zM567 745l-4 -12l-198 -59l-15 29q30 20 86 60t78 55q14 -4 32 -29.5t21 -43.5z" unicode="Ú" glyph-name="Uacute"/>
<glyph horiz-adv-x="628" d="M704 642l-8 -31q-40 -2 -56 -15.5t-26 -47.5q-13 -42 -35 -149l-22 -111q-33 -167 -100 -236q-63 -65 -164 -65q-96 0 -147 54q-65 66 -35 226l48 249q11 60 1 75t-61 20l8 31h267l-7 -31q-47 -5 -59.5 -20t-24.5 -75l-49 -254q-22 -113 7.5 -161t91.5 -48q69 0 111.5 60 t65.5 181l20 105q19 102 22 150q3 32 -14 45t-65 17l8 31h223zM562 701l-22 -27q-79 37 -113 57q-76 -35 -133 -57l-16 27q67 46 146 119h28q60 -72 110 -119z" unicode="Û" glyph-name="Ucircumflex"/>
<glyph horiz-adv-x="628" d="M704 642l-8 -31q-40 -2 -56 -15.5t-26 -47.5q-13 -42 -35 -149l-22 -111q-33 -167 -100 -236q-63 -65 -164 -65q-96 0 -147 54q-65 66 -35 226l48 249q11 60 1 75t-61 20l8 31h267l-7 -31q-47 -5 -59.5 -20t-24.5 -75l-49 -254q-22 -113 7.5 -161t91.5 -48q69 0 111.5 60 t65.5 181l20 105q19 102 22 150q3 32 -14 45t-65 17l8 31h223zM340 811h1q24 0 37.5 -16t13.5 -38q0 -30 -18.5 -51t-48.5 -21q-23 0 -37.5 14.5t-14.5 38.5q0 30 18.5 51.5t48.5 21.5zM532 811h1q24 0 37.5 -16t13.5 -38q0 -30 -18.5 -51t-48.5 -21q-23 0 -37.5 14.5 t-14.5 38.5q0 30 18.5 51.5t48.5 21.5z" unicode="Ü" glyph-name="Udieresis"/>
<glyph horiz-adv-x="573" d="M650 642l-9 -32q-42 -5 -61 -18.5t-54 -62.5q-39 -54 -134 -207q-20 -32 -27 -66l-26 -127q-12 -61 0 -77t71 -21l-7 -31h-291l8 31q54 5 69 20.5t27 77.5l24 117q8 34 -1 64q-36 132 -64 227q-14 44 -27.5 56t-52.5 17l8 32h246l-7 -31l-27 -6q-20 -4 -24.5 -14t2.5 -33 q46 -170 62 -223q85 135 132 226q12 22 7 32t-33 14l-23 3l8 32h204zM548 745l-4 -12l-198 -59l-15 29q30 20 86 60t78 55q14 -4 32 -29.5t21 -43.5z" unicode="Ý" glyph-name="Yacute"/>
<glyph horiz-adv-x="541" d="M290 498h58q189 0 189 -157q0 -85 -63 -139.5t-155 -59.5q-20 -1 -34 2l-60 17l-9 -46q-11 -52 0.5 -65.5t70.5 -19.5l-7 -30h-275l7 30q46 6 58.5 19.5t23.5 69.5l79 404q10 56 1.5 68.5t-56.5 17.5l8 33h259l-8 -33q-48 -4 -60.5 -20.5t-26.5 -90.5zM273 409l-40 -210 q20 -11 49 -11q51 0 86.5 48t35.5 116q0 52 -22 80t-63 28q-23 0 -33 -10q-7 -5 -13 -41z" unicode="Þ" glyph-name="Thorn"/>
<glyph horiz-adv-x="517" d="M75 436h51q24 125 111 199q73 60 153 60q64 0 99 -34.5t35 -94.5q0 -34 -17 -51q-62 -45 -80 -73t-18 -59q0 -30 32 -91q40 -70 40 -120q0 -70 -68.5 -127t-129.5 -57q-31 0 -54.5 15.5t-23.5 34.5q0 26 29 47q16 10 27 1q41 -38 81 -38q18 0 31.5 12t13.5 34 q0 32 -38 100q-3 5 -11.5 20.5t-11.5 21.5t-9 18.5t-8.5 20.5t-4.5 19t-2 22q0 35 27.5 72.5t87.5 94.5q10 25 10 56q0 53 -19.5 84t-48.5 31t-50 -18.5t-36 -70.5t-21.5 -84.5t-19.5 -116.5q-1 -3 -1 -5q-14 -90 -41 -234q-39 -210 -137 -305q-64 -61 -115 -61 q-22 0 -40.5 12t-18.5 30q0 27 31 54q13 11 22 5q36 -29 67 -29q21 0 32 27q14 41 39 211q12 78 28.5 192t18.5 129h-71l-5 12z" unicode="ß" glyph-name="germandbls"/>
<glyph horiz-adv-x="488" d="M457 126l16 -25q-46 -55 -93.5 -84t-74.5 -29q-45 0 -25 101l10 51h-2q-44 -62 -94 -103q-59 -49 -98 -49q-28 0 -46.5 30t-18.5 86q0 71 29 142.5t76 118.5q35 35 94 62t110 27h1q25 0 59 -8q29 -7 54 -7l5 -4q-40 -166 -67 -319q-6 -35 3 -35q6 0 26 14.5t36 30.5z M291 406h-1q-25 0 -45 -17q-42 -35 -66 -111.5t-24 -151.5q0 -49 20 -49q21 0 67 56t59 86q11 44 40 174q-24 13 -50 13zM352 500l-35 -10q-51 94 -96 166l4 14q12 5 49.5 11t50.5 4q9 -61 27 -185z" unicode="à" glyph-name="agrave"/>
<glyph horiz-adv-x="488" d="M457 126l16 -25q-46 -55 -93.5 -84t-74.5 -29q-45 0 -25 101l10 51h-2q-44 -62 -94 -103q-59 -49 -98 -49q-28 0 -46.5 30t-18.5 86q0 71 29 142.5t76 118.5q35 35 94 62t110 27h1q25 0 59 -8q29 -7 54 -7l5 -4q-40 -166 -67 -319q-6 -35 3 -35q6 0 26 14.5t36 30.5z M291 406h-1q-25 0 -45 -17q-42 -35 -66 -111.5t-24 -151.5q0 -49 20 -49q21 0 67 56t59 86q11 44 40 174q-24 13 -50 13zM470 662l-172 -175l-29 17q50 93 83 165q17 5 55 8.5t58 0.5z" unicode="á" glyph-name="aacute"/>
<glyph horiz-adv-x="488" d="M457 126l16 -25q-46 -55 -93.5 -84t-74.5 -29q-45 0 -25 101l10 51h-2q-44 -62 -94 -103q-59 -49 -98 -49q-28 0 -46.5 30t-18.5 86q0 71 29 142.5t76 118.5q35 35 94 62t110 27h1q25 0 59 -8q29 -7 54 -7l5 -4q-40 -166 -67 -319q-6 -35 3 -35q6 0 26 14.5t36 30.5z M291 406h-1q-25 0 -45 -17q-42 -35 -66 -111.5t-24 -151.5q0 -49 20 -49q21 0 67 56t59 86q11 44 40 174q-24 13 -50 13zM428 502l-29 -21q-55 61 -74 87q-43 -40 -105 -87l-25 23q78 93 129 170h32q25 -76 72 -172z" unicode="â" glyph-name="acircumflex"/>
<glyph horiz-adv-x="488" d="M457 126l16 -25q-46 -55 -93.5 -84t-74.5 -29q-45 0 -25 101l10 51h-2q-44 -62 -94 -103q-59 -49 -98 -49q-28 0 -46.5 30t-18.5 86q0 71 29 142.5t76 118.5q35 35 94 62t110 27h1q25 0 59 -8q29 -7 54 -7l5 -4q-40 -166 -67 -319q-6 -35 3 -35q6 0 26 14.5t36 30.5z M291 406h-1q-25 0 -45 -17q-42 -35 -66 -111.5t-24 -151.5q0 -49 20 -49q21 0 67 56t59 86q11 44 40 174q-24 13 -50 13zM417 620l29 -14q-28 -98 -81 -98q-13 0 -64 22q-28 13 -45 13q-25 0 -43 -44l-29 20q29 95 80 95q19 0 60 -19q36 -17 51 -17q24 0 42 42z" unicode="ã" glyph-name="atilde"/>
<glyph horiz-adv-x="488" d="M457 126l16 -25q-46 -55 -93.5 -84t-74.5 -29q-45 0 -25 101l10 51h-2q-44 -62 -94 -103q-59 -49 -98 -49q-28 0 -46.5 30t-18.5 86q0 71 29 142.5t76 118.5q35 35 94 62t110 27h1q25 0 59 -8q29 -7 54 -7l5 -4q-40 -166 -67 -319q-6 -35 3 -35q6 0 26 14.5t36 30.5z M291 406h-1q-25 0 -45 -17q-42 -35 -66 -111.5t-24 -151.5q0 -49 20 -49q21 0 67 56t59 86q11 44 40 174q-24 13 -50 13zM244 631h1q24 0 37.5 -16t13.5 -38q0 -30 -18.5 -51t-48.5 -21q-23 0 -37.5 14.5t-14.5 38.5q0 30 18.5 51.5t48.5 21.5zM427 631h1q24 0 37.5 -16 t13.5 -38q0 -30 -18.5 -51t-48.5 -21q-23 0 -37.5 14.5t-14.5 38.5q0 30 18.5 51.5t48.5 21.5z" unicode="ä" glyph-name="adieresis"/>
<glyph horiz-adv-x="488" d="M457 126l16 -25q-46 -55 -93.5 -84t-74.5 -29q-45 0 -25 101l10 51h-2q-44 -62 -94 -103q-59 -49 -98 -49q-28 0 -46.5 30t-18.5 86q0 71 29 142.5t76 118.5q35 35 94 62t110 27h1q25 0 59 -8q29 -7 54 -7l5 -4q-40 -166 -67 -319q-6 -35 3 -35q6 0 26 14.5t36 30.5z M291 406h-1q-25 0 -45 -17q-42 -35 -66 -111.5t-24 -151.5q0 -49 20 -49q21 0 67 56t59 86q11 44 40 174q-24 13 -50 13zM332 667h1q37 0 61 -23.5t23 -61.5q-1 -41 -31 -67t-70 -26q-37 0 -61 23t-23 60q1 41 30.5 68t69.5 27zM331 630h-1q-20 0 -33 -17t-13 -40 q0 -20 9.5 -33t26.5 -13q20 0 33 16.5t13 39.5q1 19 -8.5 33t-26.5 14z" unicode="å" glyph-name="aring"/>
<glyph horiz-adv-x="641" d="M601 137l18 -27q-106 -122 -224 -122q-44 0 -75.5 30.5t-31.5 98.5q0 13 1 23h-2q-45 -65 -88 -100q-62 -52 -106 -52q-28 0 -46 29.5t-18 85.5q0 70 28 142t75 120q34 34 92.5 61.5t102.5 27.5q23 0 52 -11q26 2 39 4l6 -3l-12 -51l1 -1q71 62 143 62q41 0 65 -24 t24 -59q0 -116 -245 -181v-27q0 -97 69 -97q62 0 132 71zM287 409h-1q-24 0 -44 -17q-30 -25 -53 -85q-36 -92 -36 -184q0 -47 20 -47q21 0 60 45q38 45 63 101q12 24 24 82t15 89q-20 16 -48 16zM508 406h-1q-17 0 -33 -15q-17 -14 -37.5 -53.5t-30.5 -110.5 q72 24 103 55.5t31 77.5q0 22 -9.5 34t-22.5 12z" unicode="æ" glyph-name="ae"/>
<glyph horiz-adv-x="369" d="M322 127l17 -28q-70 -82 -150 -103l-18 -21q-15 -20 2 -43q26 -39 26 -67q-1 -32 -33.5 -60.5t-87.5 -45.5l-13 29q61 30 62 59q0 15 -16 37q-14 19 -14.5 33.5t14.5 33.5l31 37v1q-51 -2 -79.5 33t-28.5 108q0 66 27.5 135t77.5 115q32 30 80.5 52t83.5 22t58.5 -16.5 t23.5 -38.5q0 -27 -35 -54q-25 -20 -38 1q-38 56 -69 56q-25 0 -44 -41q-43 -88 -43 -204q0 -93 52 -93q48 0 114 63z" unicode="ç" glyph-name="ccedilla"/>
<glyph horiz-adv-x="391" d="M351 135l18 -26q-112 -121 -221 -121q-115 0 -115 146q0 73 31.5 143.5t82.5 112.5q31 25 75 44.5t78 19.5q47 0 71 -24.5t24 -61.5q0 -113 -241 -178q-1 -8 -1 -25q0 -100 62 -100q66 0 136 70zM255 408h-1q-14 0 -30 -13q-17 -15 -37 -58t-29 -110q132 43 132 126 q0 28 -11 41.5t-24 13.5zM306 500l-35 -10q-51 94 -96 166l4 14q12 5 49.5 11t50.5 4q9 -61 27 -185z" unicode="è" glyph-name="egrave"/>
<glyph horiz-adv-x="391" d="M351 135l18 -26q-112 -121 -221 -121q-115 0 -115 146q0 73 31.5 143.5t82.5 112.5q31 25 75 44.5t78 19.5q47 0 71 -24.5t24 -61.5q0 -113 -241 -178q-1 -8 -1 -25q0 -100 62 -100q66 0 136 70zM255 408h-1q-14 0 -30 -13q-17 -15 -37 -58t-29 -110q132 43 132 126 q0 28 -11 41.5t-24 13.5zM429 662l-172 -175l-29 17q50 93 83 165q17 5 55 8.5t58 0.5z" unicode="é" glyph-name="eacute"/>
<glyph horiz-adv-x="391" d="M351 135l18 -26q-112 -121 -221 -121q-115 0 -115 146q0 73 31.5 143.5t82.5 112.5q31 25 75 44.5t78 19.5q47 0 71 -24.5t24 -61.5q0 -113 -241 -178q-1 -8 -1 -25q0 -100 62 -100q66 0 136 70zM255 408h-1q-14 0 -30 -13q-17 -15 -37 -58t-29 -110q132 43 132 126 q0 28 -11 41.5t-24 13.5zM385 506l-29 -21q-55 61 -74 87q-43 -40 -105 -87l-25 23q78 93 129 170h32q25 -76 72 -172z" unicode="ê" glyph-name="ecircumflex"/>
<glyph horiz-adv-x="391" d="M351 135l18 -26q-112 -121 -221 -121q-115 0 -115 146q0 73 31.5 143.5t82.5 112.5q31 25 75 44.5t78 19.5q47 0 71 -24.5t24 -61.5q0 -113 -241 -178q-1 -8 -1 -25q0 -100 62 -100q66 0 136 70zM255 408h-1q-14 0 -30 -13q-17 -15 -37 -58t-29 -110q132 43 132 126 q0 28 -11 41.5t-24 13.5zM197 631h1q24 0 37.5 -16t13.5 -38q0 -30 -18.5 -51t-48.5 -21q-23 0 -37.5 14.5t-14.5 38.5q0 30 18.5 51.5t48.5 21.5zM380 631h1q24 0 37.5 -16t13.5 -38q0 -30 -18.5 -51t-48.5 -21q-23 0 -37.5 14.5t-14.5 38.5q0 30 18.5 51.5t48.5 21.5z" unicode="ë" glyph-name="edieresis"/>
<glyph horiz-adv-x="281" d="M241 118l17 -24q-45 -51 -92.5 -78.5t-75.5 -27.5q-50 0 -27 97l54 241q6 29 -1 32q-10 0 -58 -35l-13 26q47 46 96.5 75.5t76.5 29.5q44 0 19 -101l-55 -236q-9 -36 2 -36q15 0 57 37zM238 501l-35 -10q-51 94 -96 166l4 14q12 5 49.5 11t50.5 4q9 -61 27 -185z" unicode="ì" glyph-name="igrave"/>
<glyph horiz-adv-x="281" d="M241 118l17 -24q-45 -51 -92.5 -78.5t-75.5 -27.5q-50 0 -27 97l54 241q6 29 -1 32q-10 0 -58 -35l-13 26q47 46 96.5 75.5t76.5 29.5q44 0 19 -101l-55 -236q-9 -36 2 -36q15 0 57 37zM360 667l-172 -175l-29 17q50 93 83 165q17 5 55 8.5t58 0.5z" unicode="í" glyph-name="iacute"/>
<glyph horiz-adv-x="281" d="M241 118l17 -24q-45 -51 -92.5 -78.5t-75.5 -27.5q-50 0 -27 97l54 241q6 29 -1 32q-10 0 -58 -35l-13 26q47 46 96.5 75.5t76.5 29.5q44 0 19 -101l-55 -236q-9 -36 2 -36q15 0 57 37zM306 502l-29 -21q-55 61 -74 87q-43 -40 -105 -87l-25 23q78 93 129 170h32 q25 -76 72 -172z" unicode="î" glyph-name="icircumflex"/>
<glyph horiz-adv-x="281" d="M241 118l17 -24q-45 -51 -92.5 -78.5t-75.5 -27.5q-50 0 -27 97l54 241q6 29 -1 32q-10 0 -58 -35l-13 26q47 46 96.5 75.5t76.5 29.5q44 0 19 -101l-55 -236q-9 -36 2 -36q15 0 57 37zM129 631h1q24 0 37.5 -16t13.5 -38q0 -30 -18.5 -51t-48.5 -21q-23 0 -37.5 14.5 t-14.5 38.5q0 30 18.5 51.5t48.5 21.5zM312 631h1q24 0 37.5 -16t13.5 -38q0 -30 -18.5 -51t-48.5 -21q-23 0 -37.5 14.5t-14.5 38.5q0 30 18.5 51.5t48.5 21.5z" unicode="ï" glyph-name="idieresis"/>
<glyph horiz-adv-x="457" d="M467 633l-101 -55q75 -100 75 -230q0 -92 -26 -167.5t-70 -118.5q-74 -74 -167 -74q-74 0 -106 47.5t-32 115.5q0 92 41 162.5t101 103.5q64 36 110 36q19 0 32 -5q-2 47 -27 92l-124 -65l-16 34l119 64q-19 30 -48.5 54t-53.5 35q6 18 17 31q34 -7 77 -32t71 -53l110 59 zM213 29h1q10 0 22 4q32 14 60 99.5t27 209.5q0 36 -12 52q-14 19 -35 19q-15 0 -31 -9q-26 -15 -54 -87t-28 -175q0 -50 14 -81.5t36 -31.5z" unicode="ð" glyph-name="eth"/>
<glyph horiz-adv-x="518" d="M478 119l14 -27q-48 -51 -93 -77.5t-72 -26.5q-51 0 -28 95q38 166 52 223q12 51 -2 63q-21 0 -72 -56t-76 -106q-26 -101 -44 -196q-41 -2 -110 -19l-6 8q46 188 74 320q8 41 0 41q-16 0 -59 -39l-14 28q47 48 90.5 76t70.5 28q43 0 21 -108l-14 -63h2q69 95 142 143 q41 28 74 28q20 0 30.5 -11t14 -44t-11.5 -95q-42 -180 -43 -185q-9 -37 2 -37q15 0 58 37zM421 620l29 -14q-28 -98 -81 -98q-13 0 -64 22q-28 13 -45 13q-25 0 -43 -44l-29 20q29 95 80 95q19 0 60 -19q36 -17 51 -17q24 0 42 42z" unicode="ñ" glyph-name="ntilde"/>
<glyph horiz-adv-x="462" d="M305 454h1q67 0 101 -42t34 -115q0 -69 -27.5 -136t-77.5 -110q-74 -63 -161 -63q-75 0 -106.5 46.5t-31.5 112.5q0 91 39.5 161t99.5 106q67 40 129 40zM268 411h-1q-11 0 -21 -5q-29 -13 -57 -85.5t-28 -185.5q0 -50 15.5 -76.5t37.5 -26.5q10 0 22 4q30 12 56 88.5 t26 182.5q0 104 -50 104zM334 496l-35 -10q-51 94 -96 166l4 14q12 5 49.5 11t50.5 4q9 -61 27 -185z" unicode="ò" glyph-name="ograve"/>
<glyph horiz-adv-x="462" d="M305 454h1q67 0 101 -42t34 -115q0 -69 -27.5 -136t-77.5 -110q-74 -63 -161 -63q-75 0 -106.5 46.5t-31.5 112.5q0 91 39.5 161t99.5 106q67 40 129 40zM268 411h-1q-11 0 -21 -5q-29 -13 -57 -85.5t-28 -185.5q0 -50 15.5 -76.5t37.5 -26.5q10 0 22 4q30 12 56 88.5 t26 182.5q0 104 -50 104zM445 662l-172 -175l-29 17q50 93 83 165q17 5 55 8.5t58 0.5z" unicode="ó" glyph-name="oacute"/>
<glyph horiz-adv-x="462" d="M305 454h1q67 0 101 -42t34 -115q0 -69 -27.5 -136t-77.5 -110q-74 -63 -161 -63q-75 0 -106.5 46.5t-31.5 112.5q0 91 39.5 161t99.5 106q67 40 129 40zM268 411h-1q-11 0 -21 -5q-29 -13 -57 -85.5t-28 -185.5q0 -50 15.5 -76.5t37.5 -26.5q10 0 22 4q30 12 56 88.5 t26 182.5q0 104 -50 104zM407 502l-29 -21q-55 61 -74 87q-43 -40 -105 -87l-25 23q78 93 129 170h32q25 -76 72 -172z" unicode="ô" glyph-name="ocircumflex"/>
<glyph horiz-adv-x="462" d="M305 454h1q67 0 101 -42t34 -115q0 -69 -27.5 -136t-77.5 -110q-74 -63 -161 -63q-75 0 -106.5 46.5t-31.5 112.5q0 91 39.5 161t99.5 106q67 40 129 40zM268 411h-1q-11 0 -21 -5q-29 -13 -57 -85.5t-28 -185.5q0 -50 15.5 -76.5t37.5 -26.5q10 0 22 4q30 12 56 88.5 t26 182.5q0 104 -50 104zM397 620l29 -14q-28 -98 -81 -98q-13 0 -64 22q-28 13 -45 13q-25 0 -43 -44l-29 20q29 95 80 95q19 0 60 -19q36 -17 51 -17q24 0 42 42z" unicode="õ" glyph-name="otilde"/>
<glyph horiz-adv-x="462" d="M305 454h1q67 0 101 -42t34 -115q0 -69 -27.5 -136t-77.5 -110q-74 -63 -161 -63q-75 0 -106.5 46.5t-31.5 112.5q0 91 39.5 161t99.5 106q67 40 129 40zM268 411h-1q-11 0 -21 -5q-29 -13 -57 -85.5t-28 -185.5q0 -50 15.5 -76.5t37.5 -26.5q10 0 22 4q30 12 56 88.5 t26 182.5q0 104 -50 104zM214 631h1q24 0 37.5 -16t13.5 -38q0 -30 -18.5 -51t-48.5 -21q-23 0 -37.5 14.5t-14.5 38.5q0 30 18.5 51.5t48.5 21.5zM397 631h1q24 0 37.5 -16t13.5 -38q0 -30 -18.5 -51t-48.5 -21q-23 0 -37.5 14.5t-14.5 38.5q0 30 18.5 51.5t48.5 21.5z" unicode="ö" glyph-name="odieresis"/>
<glyph horiz-adv-x="597" d="M323 349h-1q-22 0 -40 18t-18 41q0 24 18 42.5t41 18.5q25 0 42.5 -18.5t17.5 -42.5t-17.5 -41.5t-42.5 -17.5zM562 224h-484v63h484v-63zM322 162h1q22 0 40 -17.5t18 -41.5t-18 -42.5t-41 -18.5q-25 0 -42.5 18.5t-17.5 42.5t17.5 41.5t42.5 17.5z" unicode="÷" glyph-name="divide"/>
<glyph horiz-adv-x="468" d="M418 490l27 -21l-40 -53q40 -42 40 -124q0 -67 -27 -132t-74 -106q-31 -28 -76 -47t-88 -19q-48 0 -78 21l-43 -57l-23 24l40 54q-38 42 -38 125q0 87 40 156.5t100 105.5q65 38 126 38q43 0 74 -19zM157 134l162 226q-10 53 -45 53q-15 0 -26 -6q-30 -13 -61 -78 t-31 -165q0 -20 1 -30zM328 312l-163 -225q6 -26 19 -40t28 -14q14 0 23 4q33 12 63 79.5t30 170.5v25z" unicode="ø" glyph-name="oslash"/>
<glyph horiz-adv-x="511" d="M474 123l16 -27q-44 -51 -88 -79.5t-74 -28.5q-46 0 -28 91q2 11 6.5 30.5t6.5 30.5h-2q-35 -47 -74 -82.5t-65 -49.5q-32 -20 -66 -20q-68 0 -37 138q15 70 46 200q7 32 -2 35q-13 0 -57 -35l-12 28q45 43 91.5 71.5t75.5 28.5q21 0 25.5 -21.5t-7.5 -81.5 q-7 -30 -24 -105.5t-26 -111.5q-13 -57 9 -57q26 0 71 49t65 89q30 130 46 211l104 28h14q-42 -169 -74 -334q-7 -38 2 -38q17 0 58 41zM351 496l-35 -10q-51 94 -96 166l4 14q12 5 49.5 11t50.5 4q9 -61 27 -185z" unicode="ù" glyph-name="ugrave"/>
<glyph horiz-adv-x="511" d="M474 123l16 -27q-44 -51 -88 -79.5t-74 -28.5q-46 0 -28 91q2 11 6.5 30.5t6.5 30.5h-2q-35 -47 -74 -82.5t-65 -49.5q-32 -20 -66 -20q-68 0 -37 138q15 70 46 200q7 32 -2 35q-13 0 -57 -35l-12 28q45 43 91.5 71.5t75.5 28.5q21 0 25.5 -21.5t-7.5 -81.5 q-7 -30 -24 -105.5t-26 -111.5q-13 -57 9 -57q26 0 71 49t65 89q30 130 46 211l104 28h14q-42 -169 -74 -334q-7 -38 2 -38q17 0 58 41zM477 662l-172 -175l-29 17q50 93 83 165q17 5 55 8.5t58 0.5z" unicode="ú" glyph-name="uacute"/>
<glyph horiz-adv-x="511" d="M474 123l16 -27q-44 -51 -88 -79.5t-74 -28.5q-46 0 -28 91q2 11 6.5 30.5t6.5 30.5h-2q-35 -47 -74 -82.5t-65 -49.5q-32 -20 -66 -20q-68 0 -37 138q15 70 46 200q7 32 -2 35q-13 0 -57 -35l-12 28q45 43 91.5 71.5t75.5 28.5q21 0 25.5 -21.5t-7.5 -81.5 q-7 -30 -24 -105.5t-26 -111.5q-13 -57 9 -57q26 0 71 49t65 89q30 130 46 211l104 28h14q-42 -169 -74 -334q-7 -38 2 -38q17 0 58 41zM432 502l-29 -21q-55 61 -74 87q-43 -40 -105 -87l-25 23q78 93 129 170h32q25 -76 72 -172z" unicode="û" glyph-name="ucircumflex"/>
<glyph horiz-adv-x="511" d="M474 123l16 -27q-44 -51 -88 -79.5t-74 -28.5q-46 0 -28 91q2 11 6.5 30.5t6.5 30.5h-2q-35 -47 -74 -82.5t-65 -49.5q-32 -20 -66 -20q-68 0 -37 138q15 70 46 200q7 32 -2 35q-13 0 -57 -35l-12 28q45 43 91.5 71.5t75.5 28.5q21 0 25.5 -21.5t-7.5 -81.5 q-7 -30 -24 -105.5t-26 -111.5q-13 -57 9 -57q26 0 71 49t65 89q30 130 46 211l104 28h14q-42 -169 -74 -334q-7 -38 2 -38q17 0 58 41zM237 631h1q24 0 37.5 -16t13.5 -38q0 -30 -18.5 -51t-48.5 -21q-23 0 -37.5 14.5t-14.5 38.5q0 30 18.5 51.5t48.5 21.5zM420 631h1 q24 0 37.5 -16t13.5 -38q0 -30 -18.5 -51t-48.5 -21q-23 0 -37.5 14.5t-14.5 38.5q0 30 18.5 51.5t48.5 21.5z" unicode="ü" glyph-name="udieresis"/>
<glyph horiz-adv-x="444" d="M260 100h2q32 51 49.5 81t35 73t17.5 76q-1 29 -14 53q-8 18 0 36q18 35 52 35q22 0 37 -17.5t15 -48.5q0 -49 -38 -113q-68 -114 -156 -244t-177 -232l-126 -32l-9 29q84 55 130.5 94.5t82.5 87.5q1 58 -7.5 160.5t-20.5 167.5q-10 53 -19 53q-13 0 -47 -47l-20 25 q33 53 68.5 85t66.5 32q51 0 63 -133q8 -78 15 -221zM459 662l-172 -175l-29 17q50 93 83 165q17 5 55 8.5t58 0.5z" unicode="ý" glyph-name="yacute"/>
<glyph horiz-adv-x="476" d="M203 325h2q52 66 101.5 97.5t85.5 31.5q33 0 53.5 -30.5t20.5 -85.5q0 -83 -39 -165.5t-104 -129.5q-37 -27 -76.5 -41t-58.5 -14q-24 0 -47 9q-3 -16 -9.5 -54t-9.5 -59q-6 -34 1.5 -47.5t38.5 -16.5l28 -3l-4 -33l-259 -12l6 33q40 8 53.5 22.5t23.5 64.5 q85 429 131 678q7 36 0 45.5t-39 11.5l-21 1l4 32q43 4 84 13t65.5 15.5t31.5 6.5q14 0 8 -29zM316 375h-1q-44 0 -121 -119q-19 -91 -38 -191q10 -12 27 -20.5t30 -8.5q19 0 36 11q35 23 63.5 109t28.5 164q0 55 -25 55z" unicode="þ" glyph-name="thorn"/>
</font>
</defs>
</svg>
