<svg id="Layer_1" data-name="Layer 1" xmlns="http://www.w3.org/2000/svg" viewBox="0 0 275 52.86"><title>logo</title><text transform="translate(61.21 37.62)" font-size="42.35" fill="#fff" font-family="MinionPro-Regular, Minion Pro"><tspan letter-spacing="-0.01em">S</tspan><tspan x="19.82" y="0">m</tspan><tspan x="54.51" y="0" letter-spacing="-0.01em">i</tspan><tspan x="65.35" y="0" letter-spacing="0.01em">t</tspan><tspan x="78.52" y="0" letter-spacing="-0.01em">h</tspan><tspan x="100.8" y="0" letter-spacing="0.01em">s</tspan><tspan x="116.68" y="0" letter-spacing="-0.01em">o</tspan><tspan x="137.77" y="0">n</tspan><tspan x="160.93" y="0" letter-spacing="0em">i</tspan><tspan x="172.41" y="0" letter-spacing="-0.01em">a</tspan><tspan x="190.62" y="0">n</tspan></text><circle cx="23.09" cy="24.16" r="23.08" transform="translate(-7.49 9.61) rotate(-22.5)" fill="#0097d4"/><path d="M39.17,29.56a5.58,5.58,0,0,0-4.79-3h0l11.51-2.4-11.51-2.4h0a9.31,9.31,0,0,1,5.71-2.13c2.53,0,4.72-3.14,3.32-5.52,0,0-.42,3.74-5.14,2.49a5.59,5.59,0,0,0-5.51,1.27h0L39.21,8l-9.83,6.44h0a9.29,9.29,0,0,1,2.53-5.55C33.67,7.11,33,3.37,30.36,2.68c0,0,2.35,2.94-1.87,5.4a5.59,5.59,0,0,0-3,4.79h0L23.09,1.36l-2.4,11.51h0a9.31,9.31,0,0,1-2.13-5.71c0-2.53-3.14-4.72-5.52-3.32,0,0,3.74.42,2.49,5.14a5.59,5.59,0,0,0,1.27,5.51h0L7,8H7l5.25,8,1.19,1.82h0a9.31,9.31,0,0,1-5.55-2.53C6,13.58,2.3,14.22,1.61,16.89c0,0,2.94-2.35,5.4,1.87a5.59,5.59,0,0,0,4.8,3h0L.29,24.16l11.51,2.4h0a9.3,9.3,0,0,1-5.71,2.13c-2.53,0-4.72,3.14-3.33,5.52,0,0,.42-3.74,5.14-2.49a5.59,5.59,0,0,0,5.51-1.27h0L7,40.28l9.83-6.44a9.3,9.3,0,0,1-2.53,5.55c-1.76,1.82-1.12,5.56,1.55,6.25,0,0-2.35-2.94,1.87-5.4a5.59,5.59,0,0,0,3-4.8h0L23.09,47l2.4-11.5h0a9.31,9.31,0,0,1,2.13,5.71c0,2.53,3.14,4.72,5.52,3.32,0,0-3.74-.41-2.49-5.14a5.59,5.59,0,0,0-1.27-5.51h0l9.83,6.44-3.4-5.19-3-4.64h0A9.31,9.31,0,0,1,38.32,33c1.82,1.76,5.56,1.12,6.25-1.55C44.57,31.43,41.63,33.78,39.17,29.56Z" transform="translate(0 -1.07)" fill="#ffd400"/></svg>