<svg xmlns="http://www.w3.org/2000/svg" viewBox="0 0 351.71 84.36"><defs><style>.a{font-size:50.22px;font-family:MinionPro-Regular, Minion Pro;}.a,.k{fill:#fff;}.b{letter-spacing:-0.01em;}.c{letter-spacing:-0.01em;}.d{letter-spacing:0.01em;}.e{letter-spacing:-0.01em;}.f{letter-spacing:0.01em;}.g{letter-spacing:-0.01em;}.h{letter-spacing:0em;}.i{letter-spacing:-0.01em;}.j{fill:#ffcd00;}.k{font-size:28.7px;font-family:MinionPro-It, Minion Pro;font-style:italic;}.l{letter-spacing:-0.03em;}.m{letter-spacing:-0.01em;}.n{letter-spacing:0.01em;}.o{letter-spacing:-0.02em;}.p{letter-spacing:-0.02em;}.q{letter-spacing:-0.01em;}.r{letter-spacing:0.02em;}.s{letter-spacing:0em;}.t{letter-spacing:-0.02em;}.u{letter-spacing:-0.01em;}.v{letter-spacing:0em;}.w{letter-spacing:-0.02em;}.x{letter-spacing:-0.01em;}</style></defs><title>si_MBC_rgb_horizontal_yellow-reversed</title><text class="a" transform="translate(98.21 41.45)"><tspan class="b">S</tspan><tspan x="23.5" y="0">m</tspan><tspan class="c" x="64.63" y="0">i</tspan><tspan class="d" x="77.48" y="0">t</tspan><tspan class="e" x="93.1" y="0">h</tspan><tspan class="f" x="119.52" y="0">s</tspan><tspan class="g" x="138.35" y="0">o</tspan><tspan x="163.35" y="0">n</tspan><tspan class="h" x="190.82" y="0">i</tspan><tspan class="i" x="204.43" y="0">a</tspan><tspan x="226.03" y="0">n</tspan></text><path class="j" d="M146.31,402.09a9.8,9.8,0,0,0-8.37-5.25v0l20.13-4.15L138,388.44h0a16.23,16.23,0,0,1,10-3.71c4.42-.06,8.27-5.47,5.83-9.64,0,0-.74,6.54-9,4.35a9.76,9.76,0,0,0-9.63,2.2h0l11.3-17.18-17.22,11.23h0a16.2,16.2,0,0,1,4.44-9.69c3.09-3.17,2-9.72-2.69-10.94,0,0,4.1,5.15-3.29,9.43a9.79,9.79,0,0,0-5.25,8.37h0l-4.15-20.13-4.23,20.11h0a16.25,16.25,0,0,1-3.71-10c-.06-4.43-5.47-8.27-9.63-5.83,0,0,6.53.74,4.34,9a9.76,9.76,0,0,0,2.21,9.63h0l-17.17-11.3h0l9.15,14,2.08,3.19h0a16.27,16.27,0,0,1-9.7-4.44c-3.17-3.09-9.71-2-10.94,2.69,0,0,5.15-4.11,9.43,3.28a9.76,9.76,0,0,0,8.38,5.25h0l-20.13,4.16,20.11,4.23h0a16.26,16.26,0,0,1-10,3.72c-4.43.06-8.27,5.46-5.83,9.63,0,0,.74-6.54,9-4.34a9.78,9.78,0,0,0,9.64-2.21h0L90,420.73l17.21-11.23a16.25,16.25,0,0,1-4.44,9.7c-3.09,3.17-2,9.71,2.69,10.93,0,0-4.1-5.14,3.29-9.43a9.77,9.77,0,0,0,5.25-8.37h0l4.16,20.13,4.23-20.11h0a16.29,16.29,0,0,1,3.71,10c.06,4.42,5.47,8.26,9.63,5.82,0,0-6.53-.73-4.34-9a9.77,9.77,0,0,0-2.21-9.64h0l17.17,11.29-5.93-9.08-5.3-8.13h0a16.31,16.31,0,0,1,9.69,4.45c3.17,3.09,9.71,2,10.94-2.69C155.74,405.38,150.59,409.48,146.31,402.09Z" transform="translate(-78.34 -352.73)"/><text class="k" transform="translate(98.3 74.03)"><tspan class="l">M</tspan><tspan class="m" x="24.34" y="0">i</tspan><tspan class="n" x="31.89" y="0">g</tspan><tspan class="o" x="44.11" y="0">r</tspan><tspan class="p" x="54.07" y="0">a</tspan><tspan class="q" x="67.5" y="0">to</tspan><tspan class="r" x="89.23" y="0">r</tspan><tspan class="s" x="100.31" y="0">y </tspan><tspan class="t" x="119.56" y="0">B</tspan><tspan class="u" x="135.72" y="0">i</tspan><tspan class="o" x="143.18" y="0">r</tspan><tspan x="153.14" y="0">d </tspan><tspan class="v" x="174.29" y="0">C</tspan><tspan class="s" x="192.6" y="0">e</tspan><tspan class="w" x="204.08" y="0">n</tspan><tspan class="x" x="218.72" y="0">t</tspan><tspan x="227.24" y="0">er</tspan></text></svg>